<?xml version="1.0" encoding="UTF-8"?> <svg xmlns="http://www.w3.org/2000/svg" width="1200" height="900" viewBox="0 0 1200 900" fill="none"><g clip-path="url(#clip0_5_2)"><rect width="1200" height="900" fill="#6481B9"></rect><g clip-path="url(#clip1_5_2)"><path d="M640.491 510.021C664.941 546.54 677.678 589.658 677 633.616C677 721.178 648.944 787.462 592.832 832.469C536.721 877.475 455.244 899.983 348.403 899.993H0V-2H318.081C426.579 -2 510.224 18.6526 569.017 59.9579C627.811 101.263 657.203 163.212 657.193 245.803C657.855 286.384 646.789 326.292 625.326 360.724C604.072 394.389 571.998 419.686 529.105 436.616C579.018 449.417 616.147 473.88 640.491 510.021ZM194.314 155.35V374.658H318.081C367.173 374.658 403.58 365.676 427.302 347.71C451.025 329.744 462.891 303.005 462.9 267.492C462.9 227.84 451.454 199.236 428.563 181.679C405.671 164.122 368.844 155.345 318.081 155.35H194.314ZM449.245 712.601C460.486 702.441 469.361 689.933 475.244 675.963C481.127 661.992 483.874 646.899 483.291 631.749C483.291 550.806 441.003 510.334 356.427 510.334H194.314V743.27H348.403C392.958 743.27 426.579 733.054 449.266 712.622L449.245 712.601Z" fill="#191B34"></path><path d="M194.314 374.658H0V510.334H194.314V374.658Z" fill="#E9B737"></path></g><circle cx="1070.5" cy="97.5" r="78.5" fill="#E9B737"></circle><ellipse cx="1133" cy="150.5" rx="40" ry="40.5" fill="#191B34"></ellipse><circle cx="181" cy="181" r="181" transform="matrix(-1 0 0 1 1255 541)" fill="#191B34"></circle><circle cx="93" cy="93" r="93" transform="matrix(-1 0 0 1 1023 751)" fill="#E9B737"></circle><path d="M633.916 209.552H661.084V181.616H679.9V254H661.084V224.144H633.916V254H615.1V181.616H633.916V209.552ZM709.852 229.136C709.852 230.8 710.14 232.336 710.716 233.744C711.356 235.088 712.156 236.272 713.116 237.296C714.14 238.32 715.324 239.12 716.668 239.696C718.076 240.272 719.548 240.56 721.084 240.56C722.62 240.56 724.06 240.272 725.404 239.696C726.812 239.12 727.996 238.32 728.956 237.296C729.98 236.272 730.78 235.088 731.356 233.744C731.996 232.336 732.316 230.832 732.316 229.232C732.316 227.696 731.996 226.256 731.356 224.912C730.78 223.504 729.98 222.288 728.956 221.264C727.996 220.24 726.812 219.44 725.404 218.864C724.06 218.288 722.62 218 721.084 218C719.548 218 718.076 218.288 716.668 218.864C715.324 219.44 714.14 220.24 713.116 221.264C712.156 222.288 711.356 223.472 710.716 224.816C710.14 226.16 709.852 227.6 709.852 229.136ZM691.516 228.944C691.516 225.296 692.252 221.904 693.724 218.768C695.196 215.568 697.244 212.816 699.868 210.512C702.492 208.144 705.596 206.288 709.18 204.944C712.828 203.6 716.796 202.928 721.084 202.928C725.308 202.928 729.212 203.6 732.796 204.944C736.444 206.224 739.58 208.048 742.204 210.416C744.892 212.72 746.972 215.504 748.444 218.768C749.916 221.968 750.652 225.52 750.652 229.424C750.652 233.328 749.884 236.912 748.348 240.176C746.876 243.376 744.828 246.16 742.204 248.528C739.58 250.832 736.412 252.624 732.7 253.904C729.052 255.184 725.084 255.824 720.796 255.824C716.572 255.824 712.668 255.184 709.084 253.904C705.5 252.624 702.396 250.8 699.772 248.432C697.212 246.064 695.196 243.248 693.724 239.984C692.252 236.656 691.516 232.976 691.516 228.944ZM771.564 204.752L783.372 230.672L795.66 204.752H806.604L818.892 231.44L831.276 204.752H850.572L824.844 254H813.228L800.94 227.024L789.228 254H777.42L752.172 204.752H771.564ZM909.634 238.064H913.954C917.218 238.064 920.13 237.552 922.69 236.528C925.25 235.504 927.394 234.096 929.122 232.304C930.914 230.512 932.258 228.4 933.154 225.968C934.114 223.472 934.594 220.752 934.594 217.808C934.594 214.928 934.114 212.24 933.154 209.744C932.194 207.248 930.818 205.104 929.026 203.312C927.298 201.52 925.154 200.112 922.594 199.088C920.034 198.064 917.154 197.552 913.954 197.552H909.634V238.064ZM890.818 181.616H918.658C923.586 181.616 928.194 182.608 932.482 184.592C936.834 186.576 940.61 189.232 943.81 192.56C947.074 195.824 949.634 199.664 951.49 204.08C953.346 208.432 954.274 213.008 954.274 217.808C954.274 222.544 953.346 227.12 951.49 231.536C949.698 235.888 947.17 239.728 943.906 243.056C940.706 246.384 936.93 249.04 932.578 251.024C928.29 253.008 923.65 254 918.658 254H890.818V181.616ZM981.071 229.136C981.071 230.8 981.359 232.336 981.935 233.744C982.575 235.088 983.375 236.272 984.335 237.296C985.359 238.32 986.543 239.12 987.887 239.696C989.295 240.272 990.767 240.56 992.303 240.56C993.839 240.56 995.279 240.272 996.623 239.696C998.031 239.12 999.215 238.32 1000.18 237.296C1001.2 236.272 1002 235.088 1002.58 233.744C1003.22 232.336 1003.54 230.832 1003.54 229.232C1003.54 227.696 1003.22 226.256 1002.58 224.912C1002 223.504 1001.2 222.288 1000.18 221.264C999.215 220.24 998.031 219.44 996.623 218.864C995.279 218.288 993.839 218 992.303 218C990.767 218 989.295 218.288 987.887 218.864C986.543 219.44 985.359 220.24 984.335 221.264C983.375 222.288 982.575 223.472 981.935 224.816C981.359 226.16 981.071 227.6 981.071 229.136ZM962.735 228.944C962.735 225.296 963.471 221.904 964.943 218.768C966.415 215.568 968.463 212.816 971.087 210.512C973.711 208.144 976.815 206.288 980.399 204.944C984.047 203.6 988.015 202.928 992.303 202.928C996.527 202.928 1000.43 203.6 1004.02 204.944C1007.66 206.224 1010.8 208.048 1013.42 210.416C1016.11 212.72 1018.19 215.504 1019.66 218.768C1021.14 221.968 1021.87 225.52 1021.87 229.424C1021.87 233.328 1021.1 236.912 1019.57 240.176C1018.1 243.376 1016.05 246.16 1013.42 248.528C1010.8 250.832 1007.63 252.624 1003.92 253.904C1000.27 255.184 996.303 255.824 992.015 255.824C987.791 255.824 983.887 255.184 980.303 253.904C976.719 252.624 973.615 250.8 970.991 248.432C968.431 246.064 966.415 243.248 964.943 239.984C963.471 236.656 962.735 232.976 962.735 228.944ZM1084.95 181.616V254H1066.13V181.616H1084.95ZM706.922 328.144C704.874 326.48 702.826 325.264 700.778 324.496C698.73 323.664 696.746 323.248 694.826 323.248C692.394 323.248 690.41 323.824 688.874 324.976C687.338 326.128 686.57 327.632 686.57 329.488C686.57 330.768 686.954 331.824 687.722 332.656C688.49 333.488 689.482 334.224 690.698 334.864C691.978 335.44 693.386 335.952 694.922 336.4C696.522 336.848 698.09 337.328 699.626 337.84C705.77 339.888 710.25 342.64 713.066 346.096C715.946 349.488 717.386 353.936 717.386 359.44C717.386 363.152 716.746 366.512 715.466 369.52C714.25 372.528 712.426 375.12 709.994 377.296C707.626 379.408 704.682 381.04 701.162 382.192C697.706 383.408 693.77 384.016 689.354 384.016C680.202 384.016 671.722 381.296 663.914 375.856L671.978 360.688C674.794 363.184 677.578 365.04 680.33 366.256C683.082 367.472 685.802 368.08 688.49 368.08C691.562 368.08 693.834 367.376 695.306 365.968C696.842 364.56 697.61 362.96 697.61 361.168C697.61 360.08 697.418 359.152 697.034 358.384C696.65 357.552 696.01 356.816 695.114 356.176C694.218 355.472 693.034 354.832 691.562 354.256C690.154 353.68 688.426 353.04 686.378 352.336C683.946 351.568 681.546 350.736 679.178 349.84C676.874 348.88 674.794 347.632 672.938 346.096C671.146 344.56 669.674 342.64 668.522 340.336C667.434 337.968 666.89 334.992 666.89 331.408C666.89 327.824 667.466 324.592 668.618 321.712C669.834 318.768 671.498 316.272 673.61 314.224C675.786 312.112 678.41 310.48 681.482 309.328C684.618 308.176 688.106 307.6 691.946 307.6C695.53 307.6 699.274 308.112 703.178 309.136C707.082 310.096 710.826 311.536 714.41 313.456L706.922 328.144ZM763.608 350.224C763.032 347.792 761.848 345.84 760.056 344.368C758.264 342.896 756.088 342.16 753.528 342.16C750.84 342.16 748.632 342.864 746.904 344.272C745.24 345.68 744.184 347.664 743.736 350.224H763.608ZM743.256 360.304C743.256 367.792 746.776 371.536 753.816 371.536C757.592 371.536 760.44 370 762.36 366.928H779.16C775.768 378.192 767.288 383.824 753.72 383.824C749.56 383.824 745.752 383.216 742.296 382C738.84 380.72 735.864 378.928 733.368 376.624C730.936 374.32 729.048 371.568 727.704 368.368C726.36 365.168 725.688 361.584 725.688 357.616C725.688 353.52 726.328 349.84 727.608 346.576C728.888 343.248 730.712 340.432 733.08 338.128C735.448 335.824 738.296 334.064 741.624 332.848C745.016 331.568 748.824 330.928 753.048 330.928C757.208 330.928 760.952 331.568 764.28 332.848C767.608 334.064 770.424 335.856 772.728 338.224C775.032 340.592 776.792 343.504 778.008 346.96C779.224 350.352 779.832 354.192 779.832 358.48V360.304H743.256ZM807.141 302.32V382H789.765V302.32H807.141ZM836.391 302.32V382H819.015V302.32H836.391ZM879.258 382L891.546 309.616H910.17L924.666 348.208L939.066 309.616H957.69L969.978 382H951.258L945.018 340.336L927.93 382H920.442L904.218 340.336L897.978 382H879.258ZM998.121 375.28L974.312 332.752H994.473L1007.62 358L1020.39 332.752H1040.36L1000.81 406.576H981.321L998.121 375.28ZM595.947 437.616V510H577.131V437.616H595.947ZM609.436 460.752H626.812V466.992C629.18 464.112 631.58 462.192 634.012 461.232C636.444 460.208 639.292 459.696 642.556 459.696C646.012 459.696 648.956 460.272 651.388 461.424C653.884 462.512 655.996 464.08 657.724 466.128C659.132 467.792 660.092 469.648 660.604 471.696C661.116 473.744 661.372 476.08 661.372 478.704V510H643.996V485.136C643.996 482.704 643.804 480.752 643.42 479.28C643.1 477.744 642.492 476.528 641.596 475.632C640.828 474.864 639.964 474.32 639.004 474C638.044 473.68 637.02 473.52 635.932 473.52C632.988 473.52 630.716 474.416 629.116 476.208C627.58 477.936 626.812 480.432 626.812 483.696V510H609.436V460.752ZM692.578 475.248V510H675.202V475.248H669.442V460.752H675.202V445.968H692.578V460.752H702.466V475.248H692.578ZM745.936 478.224C745.36 475.792 744.176 473.84 742.384 472.368C740.592 470.896 738.416 470.16 735.856 470.16C733.168 470.16 730.96 470.864 729.232 472.272C727.568 473.68 726.512 475.664 726.064 478.224H745.936ZM725.584 488.304C725.584 495.792 729.104 499.536 736.144 499.536C739.92 499.536 742.768 498 744.688 494.928H761.488C758.096 506.192 749.616 511.824 736.048 511.824C731.888 511.824 728.08 511.216 724.624 510C721.168 508.72 718.192 506.928 715.696 504.624C713.264 502.32 711.376 499.568 710.032 496.368C708.688 493.168 708.016 489.584 708.016 485.616C708.016 481.52 708.656 477.84 709.936 474.576C711.216 471.248 713.04 468.432 715.408 466.128C717.776 463.824 720.624 462.064 723.952 460.848C727.344 459.568 731.152 458.928 735.376 458.928C739.536 458.928 743.28 459.568 746.608 460.848C749.936 462.064 752.752 463.856 755.056 466.224C757.36 468.592 759.12 471.504 760.336 474.96C761.552 478.352 762.16 482.192 762.16 486.48V488.304H725.584ZM789.469 430.32V510H772.093V430.32H789.469ZM818.719 430.32V510H801.343V430.32H818.719ZM866.593 478.224C866.017 475.792 864.833 473.84 863.041 472.368C861.249 470.896 859.073 470.16 856.513 470.16C853.825 470.16 851.617 470.864 849.889 472.272C848.225 473.68 847.169 475.664 846.721 478.224H866.593ZM846.241 488.304C846.241 495.792 849.761 499.536 856.801 499.536C860.577 499.536 863.425 498 865.345 494.928H882.145C878.753 506.192 870.273 511.824 856.705 511.824C852.545 511.824 848.737 511.216 845.281 510C841.825 508.72 838.849 506.928 836.353 504.624C833.921 502.32 832.033 499.568 830.689 496.368C829.345 493.168 828.673 489.584 828.673 485.616C828.673 481.52 829.313 477.84 830.593 474.576C831.873 471.248 833.697 468.432 836.065 466.128C838.433 463.824 841.281 462.064 844.609 460.848C848.001 459.568 851.809 458.928 856.033 458.928C860.193 458.928 863.937 459.568 867.265 460.848C870.593 462.064 873.409 463.856 875.713 466.224C878.017 468.592 879.777 471.504 880.993 474.96C882.209 478.352 882.817 482.192 882.817 486.48V488.304H846.241ZM929.901 476.688C926.893 474.64 923.853 473.616 920.781 473.616C919.117 473.616 917.549 473.904 916.077 474.48C914.669 475.056 913.421 475.888 912.333 476.976C911.245 478 910.381 479.248 909.741 480.72C909.165 482.128 908.877 483.728 908.877 485.52C908.877 487.248 909.165 488.848 909.741 490.32C910.381 491.728 911.213 492.976 912.237 494.064C913.325 495.088 914.605 495.888 916.077 496.464C917.549 497.04 919.117 497.328 920.781 497.328C924.045 497.328 927.085 496.208 929.901 493.968V508.752C925.613 510.608 921.549 511.536 917.709 511.536C914.125 511.536 910.701 510.928 907.437 509.712C904.237 508.496 901.389 506.768 898.893 504.528C896.461 502.224 894.509 499.504 893.037 496.368C891.565 493.168 890.829 489.616 890.829 485.712C890.829 481.808 891.533 478.256 892.941 475.056C894.349 471.792 896.269 469.008 898.701 466.704C901.133 464.336 904.013 462.512 907.341 461.232C910.733 459.888 914.349 459.216 918.189 459.216C922.413 459.216 926.317 460.112 929.901 461.904V476.688ZM959.203 475.248V510H941.827V475.248H936.067V460.752H941.827V445.968H959.203V460.752H969.091V475.248H959.203ZM993 460.752V488.496C993 494.576 995.944 497.616 1001.83 497.616C1007.72 497.616 1010.66 494.576 1010.66 488.496V460.752H1028.04V491.856C1028.04 498.512 1025.83 503.504 1021.42 506.832C1017.06 510.16 1010.54 511.824 1001.83 511.824C993.128 511.824 986.568 510.16 982.152 506.832C977.8 503.504 975.624 498.512 975.624 491.856V460.752H993ZM1055.97 485.232C1055.97 486.832 1056.26 488.336 1056.83 489.744C1057.41 491.088 1058.18 492.272 1059.14 493.296C1060.16 494.32 1061.35 495.12 1062.69 495.696C1064.1 496.272 1065.6 496.56 1067.2 496.56C1068.74 496.56 1070.18 496.272 1071.52 495.696C1072.93 495.12 1074.11 494.32 1075.07 493.296C1076.1 492.272 1076.9 491.088 1077.47 489.744C1078.11 488.4 1078.43 486.96 1078.43 485.424C1078.43 483.888 1078.11 482.448 1077.47 481.104C1076.9 479.696 1076.1 478.48 1075.07 477.456C1074.11 476.432 1072.93 475.632 1071.52 475.056C1070.18 474.48 1068.74 474.192 1067.2 474.192C1065.6 474.192 1064.1 474.48 1062.69 475.056C1061.35 475.632 1060.16 476.432 1059.14 477.456C1058.18 478.48 1057.41 479.664 1056.83 481.008C1056.26 482.288 1055.97 483.696 1055.97 485.232ZM1077.86 460.752H1095.33V510H1077.86V504.528C1074.15 509.2 1069.12 511.536 1062.79 511.536C1059.2 511.536 1055.91 510.896 1052.9 509.616C1049.89 508.272 1047.27 506.416 1045.03 504.048C1042.79 501.68 1041.03 498.896 1039.75 495.696C1038.53 492.496 1037.92 489.008 1037.92 485.232C1037.92 481.712 1038.53 478.384 1039.75 475.248C1040.96 472.048 1042.66 469.264 1044.83 466.896C1047.01 464.528 1049.6 462.672 1052.61 461.328C1055.62 459.92 1058.95 459.216 1062.59 459.216C1068.74 459.216 1073.83 461.36 1077.86 465.648V460.752ZM1124.53 430.32V510H1107.16V430.32H1124.53ZM619.103 598.832H625.343C632.255 598.832 635.711 595.824 635.711 589.808C635.711 583.792 632.255 580.784 625.343 580.784H619.103V598.832ZM619.103 638H600.287V565.616H630.239C638.367 565.616 644.575 567.728 648.863 571.952C653.215 576.176 655.391 582.128 655.391 589.808C655.391 597.488 653.215 603.44 648.863 607.664C644.575 611.888 638.367 614 630.239 614H619.103V638ZM663.718 588.752H681.094V596.816C682.95 593.872 685.222 591.632 687.91 590.096C690.598 588.496 693.734 587.696 697.318 587.696C697.766 587.696 698.246 587.696 698.758 587.696C699.334 587.696 699.974 587.76 700.678 587.888V604.496C698.374 603.344 695.878 602.768 693.19 602.768C689.158 602.768 686.118 603.984 684.07 606.416C682.086 608.784 681.094 612.272 681.094 616.88V638H663.718V588.752ZM725.227 613.136C725.227 614.8 725.515 616.336 726.091 617.744C726.731 619.088 727.531 620.272 728.491 621.296C729.515 622.32 730.699 623.12 732.043 623.696C733.451 624.272 734.923 624.56 736.459 624.56C737.995 624.56 739.435 624.272 740.779 623.696C742.187 623.12 743.371 622.32 744.331 621.296C745.355 620.272 746.155 619.088 746.731 617.744C747.371 616.336 747.691 614.832 747.691 613.232C747.691 611.696 747.371 610.256 746.731 608.912C746.155 607.504 745.355 606.288 744.331 605.264C743.371 604.24 742.187 603.44 740.779 602.864C739.435 602.288 737.995 602 736.459 602C734.923 602 733.451 602.288 732.043 602.864C730.699 603.44 729.515 604.24 728.491 605.264C727.531 606.288 726.731 607.472 726.091 608.816C725.515 610.16 725.227 611.6 725.227 613.136ZM706.891 612.944C706.891 609.296 707.627 605.904 709.099 602.768C710.571 599.568 712.619 596.816 715.243 594.512C717.867 592.144 720.971 590.288 724.555 588.944C728.203 587.6 732.171 586.928 736.459 586.928C740.683 586.928 744.587 587.6 748.171 588.944C751.819 590.224 754.955 592.048 757.579 594.416C760.267 596.72 762.347 599.504 763.819 602.768C765.291 605.968 766.027 609.52 766.027 613.424C766.027 617.328 765.259 620.912 763.723 624.176C762.251 627.376 760.203 630.16 757.579 632.528C754.955 634.832 751.787 636.624 748.075 637.904C744.427 639.184 740.459 639.824 736.171 639.824C731.947 639.824 728.043 639.184 724.459 637.904C720.875 636.624 717.771 634.8 715.147 632.432C712.587 630.064 710.571 627.248 709.099 623.984C707.627 620.656 706.891 616.976 706.891 612.944ZM815.294 613.52C815.294 611.984 815.006 610.544 814.43 609.2C813.918 607.792 813.15 606.576 812.126 605.552C811.102 604.528 809.886 603.728 808.478 603.152C807.134 602.512 805.662 602.192 804.062 602.192C802.526 602.192 801.086 602.48 799.742 603.056C798.398 603.632 797.214 604.432 796.19 605.456C795.23 606.48 794.43 607.696 793.79 609.104C793.214 610.448 792.926 611.888 792.926 613.424C792.926 614.96 793.214 616.4 793.79 617.744C794.366 619.088 795.166 620.272 796.19 621.296C797.214 622.256 798.398 623.056 799.742 623.696C801.15 624.272 802.622 624.56 804.158 624.56C805.694 624.56 807.134 624.272 808.478 623.696C809.822 623.12 810.974 622.32 811.934 621.296C812.958 620.272 813.758 619.088 814.334 617.744C814.974 616.4 815.294 614.992 815.294 613.52ZM793.406 662.576H776.03V588.752H793.406V594.224C797.118 589.552 802.174 587.216 808.574 587.216C812.094 587.216 815.358 587.92 818.366 589.328C821.438 590.672 824.094 592.528 826.334 594.896C828.574 597.264 830.302 600.048 831.518 603.248C832.798 606.448 833.438 609.872 833.438 613.52C833.438 617.168 832.798 620.56 831.518 623.696C830.302 626.832 828.574 629.584 826.334 631.952C824.158 634.32 821.566 636.176 818.558 637.52C815.55 638.864 812.286 639.536 808.766 639.536C802.622 639.536 797.502 637.424 793.406 633.2V662.576ZM879.343 606.224C878.767 603.792 877.583 601.84 875.791 600.368C873.999 598.896 871.823 598.16 869.263 598.16C866.575 598.16 864.367 598.864 862.639 600.272C860.975 601.68 859.919 603.664 859.471 606.224H879.343ZM858.991 616.304C858.991 623.792 862.511 627.536 869.551 627.536C873.327 627.536 876.175 626 878.095 622.928H894.895C891.503 634.192 883.023 639.824 869.455 639.824C865.295 639.824 861.487 639.216 858.031 638C854.575 636.72 851.599 634.928 849.103 632.624C846.671 630.32 844.783 627.568 843.439 624.368C842.095 621.168 841.423 617.584 841.423 613.616C841.423 609.52 842.063 605.84 843.343 602.576C844.623 599.248 846.447 596.432 848.815 594.128C851.183 591.824 854.031 590.064 857.359 588.848C860.751 587.568 864.559 586.928 868.783 586.928C872.943 586.928 876.687 587.568 880.015 588.848C883.343 590.064 886.159 591.856 888.463 594.224C890.767 596.592 892.527 599.504 893.743 602.96C894.959 606.352 895.567 610.192 895.567 614.48V616.304H858.991ZM905.499 588.752H922.875V596.816C924.731 593.872 927.003 591.632 929.691 590.096C932.379 588.496 935.515 587.696 939.099 587.696C939.547 587.696 940.027 587.696 940.539 587.696C941.115 587.696 941.755 587.76 942.459 587.888V604.496C940.155 603.344 937.659 602.768 934.971 602.768C930.939 602.768 927.899 603.984 925.851 606.416C923.867 608.784 922.875 612.272 922.875 616.88V638H905.499V588.752ZM971.391 603.248V638H954.015V603.248H948.255V588.752H954.015V573.968H971.391V588.752H981.279V603.248H971.391ZM1005.67 631.28L981.859 588.752H1002.02L1015.17 614L1027.94 588.752H1047.91L1008.36 662.576H988.867L1005.67 631.28ZM1067.92 613.712V594.992C1068.69 595.12 1069.39 595.248 1070.03 595.376C1070.67 595.44 1071.28 595.472 1071.86 595.472C1073.59 595.472 1075.22 595.248 1076.75 594.8C1078.29 594.288 1079.6 593.616 1080.69 592.784C1081.84 591.952 1082.74 590.96 1083.38 589.808C1084.02 588.592 1084.34 587.28 1084.34 585.872C1084.34 583.952 1083.7 582.288 1082.42 580.88C1081.14 579.472 1079.41 578.768 1077.23 578.768C1075.25 578.768 1073.65 579.44 1072.43 580.784C1071.28 582.128 1070.71 583.888 1070.71 586.064H1051.6C1051.6 582.8 1052.24 579.824 1053.52 577.136C1054.87 574.384 1056.69 572.016 1058.99 570.032C1061.36 567.984 1064.11 566.416 1067.25 565.328C1070.45 564.176 1073.91 563.6 1077.62 563.6C1081.39 563.6 1084.82 564.24 1087.89 565.52C1091.03 566.736 1093.71 568.4 1095.95 570.512C1098.19 572.624 1099.92 575.056 1101.14 577.808C1102.35 580.56 1102.96 583.408 1102.96 586.352C1102.96 595.952 1097.17 602.768 1085.59 606.8V613.712H1067.92ZM1066 628.784C1066 627.248 1066.29 625.808 1066.87 624.464C1067.44 623.056 1068.24 621.84 1069.27 620.816C1070.29 619.792 1071.47 618.992 1072.82 618.416C1074.23 617.84 1075.7 617.552 1077.23 617.552C1078.77 617.552 1080.21 617.84 1081.55 618.416C1082.96 618.992 1084.18 619.792 1085.2 620.816C1086.23 621.84 1087.03 623.056 1087.6 624.464C1088.18 625.808 1088.47 627.248 1088.47 628.784C1088.47 630.32 1088.18 631.792 1087.6 633.2C1087.03 634.544 1086.23 635.728 1085.2 636.752C1084.18 637.776 1082.96 638.576 1081.55 639.152C1080.21 639.728 1078.77 640.016 1077.23 640.016C1075.7 640.016 1074.23 639.728 1072.82 639.152C1071.47 638.576 1070.29 637.776 1069.27 636.752C1068.24 635.728 1067.44 634.544 1066.87 633.2C1066.29 631.792 1066 630.32 1066 628.784Z" fill="#FCF7FB"></path></g><defs><clipPath id="clip0_5_2"><rect width="1200" height="900" fill="white"></rect></clipPath><clipPath id="clip1_5_2"><rect width="677" height="902" fill="white" transform="translate(0 -2)"></rect></clipPath></defs></svg> 