<?xml version="1.0" encoding="UTF-8"?> <svg xmlns="http://www.w3.org/2000/svg" width="1200" height="900" viewBox="0 0 1200 900" fill="none"><g clip-path="url(#clip0_5_2)"><rect width="1200" height="900" fill="#6481B9"></rect><g clip-path="url(#clip1_5_2)"><path d="M640.491 510.021C664.941 546.54 677.678 589.658 677 633.616C677 721.178 648.944 787.462 592.832 832.469C536.721 877.475 455.244 899.983 348.403 899.993H0V-2H318.081C426.579 -2 510.224 18.6526 569.017 59.9579C627.811 101.263 657.203 163.212 657.193 245.803C657.855 286.384 646.789 326.292 625.326 360.724C604.072 394.389 571.998 419.686 529.105 436.616C579.018 449.417 616.147 473.88 640.491 510.021ZM194.314 155.35V374.658H318.081C367.173 374.658 403.58 365.676 427.302 347.71C451.025 329.744 462.891 303.005 462.9 267.492C462.9 227.84 451.454 199.236 428.563 181.679C405.671 164.122 368.844 155.345 318.081 155.35H194.314ZM449.245 712.601C460.486 702.441 469.361 689.933 475.244 675.963C481.127 661.992 483.874 646.899 483.291 631.749C483.291 550.806 441.003 510.334 356.427 510.334H194.314V743.27H348.403C392.958 743.27 426.579 733.054 449.266 712.622L449.245 712.601Z" fill="#191B34"></path><path d="M194.314 374.658H0V510.334H194.314V374.658Z" fill="#E9B737"></path></g><circle cx="1070.5" cy="97.5" r="78.5" fill="#E9B737"></circle><ellipse cx="1133" cy="150.5" rx="40" ry="40.5" fill="#191B34"></ellipse><circle cx="181" cy="181" r="181" transform="matrix(-1 0 0 1 1255 541)" fill="#191B34"></circle><circle cx="93" cy="93" r="93" transform="matrix(-1 0 0 1 1023 751)" fill="#E9B737"></circle><path d="M768.788 276.12L760.34 252.024L751.892 276.12H768.788ZM773.78 290.424H746.9L742.58 303H722.516L750.068 230.616H770.612L798.164 303H778.1L773.78 290.424ZM805.796 253.752H823.172V261.816C825.028 258.872 827.3 256.632 829.988 255.096C832.676 253.496 835.812 252.696 839.396 252.696C839.844 252.696 840.324 252.696 840.836 252.696C841.412 252.696 842.052 252.76 842.756 252.888V269.496C840.452 268.344 837.956 267.768 835.268 267.768C831.236 267.768 828.196 268.984 826.148 271.416C824.164 273.784 823.172 277.272 823.172 281.88V303H805.796V253.752ZM871.688 268.248V303H854.312V268.248H848.552V253.752H854.312V238.968H871.688V253.752H881.576V268.248H871.688ZM512.518 374.552H490.15V386.648H511.27V402.584H490.15V415.064H512.518V431H471.334V358.616H512.518V374.552ZM543.076 404.312L523.108 381.752H545.764L554.212 391.928L562.852 381.752H585.508L565.06 404.312L589.732 431H566.692L554.116 416.408L541.444 431H518.5L543.076 404.312ZM595.702 351.32H613.078V387.992C615.446 385.112 617.846 383.192 620.278 382.232C622.71 381.208 625.558 380.696 628.822 380.696C635.03 380.696 639.702 382.424 642.838 385.88C646.038 389.272 647.638 393.88 647.638 399.704V431H630.262V406.136C630.262 403.64 630.07 401.624 629.686 400.088C629.302 398.552 628.662 397.368 627.766 396.536C626.23 395.192 624.374 394.52 622.198 394.52C619.254 394.52 616.982 395.416 615.382 397.208C613.846 398.936 613.078 401.432 613.078 404.696V431H595.702V351.32ZM676.828 381.752V431H659.452V381.752H676.828ZM658.3 362.84C658.3 361.496 658.556 360.248 659.068 359.096C659.58 357.88 660.284 356.824 661.18 355.928C662.076 355.032 663.1 354.328 664.252 353.816C665.468 353.304 666.748 353.048 668.092 353.048C669.436 353.048 670.684 353.304 671.836 353.816C673.052 354.328 674.108 355.032 675.004 355.928C675.9 356.824 676.604 357.88 677.116 359.096C677.628 360.248 677.884 361.496 677.884 362.84C677.884 364.184 677.628 365.464 677.116 366.68C676.604 367.832 675.9 368.856 675.004 369.752C674.108 370.648 673.052 371.352 671.836 371.864C670.684 372.376 669.436 372.632 668.092 372.632C666.748 372.632 665.468 372.376 664.252 371.864C663.1 371.352 662.076 370.648 661.18 369.752C660.284 368.856 659.58 367.832 659.068 366.68C658.556 365.464 658.3 364.184 658.3 362.84ZM727.966 406.52C727.966 404.984 727.678 403.544 727.102 402.2C726.526 400.792 725.726 399.576 724.702 398.552C723.678 397.528 722.494 396.728 721.15 396.152C719.806 395.512 718.334 395.192 716.734 395.192C715.198 395.192 713.758 395.48 712.414 396.056C711.07 396.632 709.886 397.432 708.862 398.456C707.902 399.48 707.102 400.696 706.462 402.104C705.886 403.448 705.598 404.888 705.598 406.424C705.598 407.96 705.886 409.4 706.462 410.744C707.038 412.088 707.838 413.272 708.862 414.296C709.886 415.256 711.07 416.056 712.414 416.696C713.822 417.272 715.294 417.56 716.83 417.56C718.366 417.56 719.806 417.272 721.15 416.696C722.494 416.12 723.646 415.32 724.606 414.296C725.63 413.272 726.43 412.088 727.006 410.744C727.646 409.4 727.966 407.992 727.966 406.52ZM706.078 351.32V386.648C710.174 382.36 715.294 380.216 721.438 380.216C725.086 380.216 728.414 380.92 731.422 382.328C734.494 383.672 737.086 385.528 739.198 387.896C741.374 390.2 743.07 392.952 744.286 396.152C745.502 399.288 746.11 402.648 746.11 406.232C746.11 409.88 745.47 413.304 744.19 416.504C742.974 419.704 741.246 422.488 739.006 424.856C736.766 427.224 734.11 429.112 731.038 430.52C728.03 431.864 724.766 432.536 721.246 432.536C714.846 432.536 709.79 430.2 706.078 425.528V431H688.702V351.32H706.078ZM773.391 381.752V431H756.015V381.752H773.391ZM754.863 362.84C754.863 361.496 755.119 360.248 755.631 359.096C756.143 357.88 756.847 356.824 757.743 355.928C758.639 355.032 759.663 354.328 760.815 353.816C762.031 353.304 763.311 353.048 764.655 353.048C765.999 353.048 767.247 353.304 768.399 353.816C769.615 354.328 770.671 355.032 771.567 355.928C772.463 356.824 773.167 357.88 773.679 359.096C774.191 360.248 774.447 361.496 774.447 362.84C774.447 364.184 774.191 365.464 773.679 366.68C773.167 367.832 772.463 368.856 771.567 369.752C770.671 370.648 769.615 371.352 768.399 371.864C767.247 372.376 765.999 372.632 764.655 372.632C763.311 372.632 762.031 372.376 760.815 371.864C759.663 371.352 758.639 370.648 757.743 369.752C756.847 368.856 756.143 367.832 755.631 366.68C755.119 365.464 754.863 364.184 754.863 362.84ZM804.656 396.248V431H787.281V396.248H781.521V381.752H787.281V366.968H804.656V381.752H814.545V396.248H804.656ZM839.766 381.752V431H822.39V381.752H839.766ZM821.238 362.84C821.238 361.496 821.494 360.248 822.006 359.096C822.518 357.88 823.222 356.824 824.118 355.928C825.014 355.032 826.038 354.328 827.19 353.816C828.406 353.304 829.686 353.048 831.03 353.048C832.374 353.048 833.622 353.304 834.774 353.816C835.99 354.328 837.046 355.032 837.942 355.928C838.838 356.824 839.542 357.88 840.054 359.096C840.566 360.248 840.822 361.496 840.822 362.84C840.822 364.184 840.566 365.464 840.054 366.68C839.542 367.832 838.838 368.856 837.942 369.752C837.046 370.648 835.99 371.352 834.774 371.864C833.622 372.376 832.374 372.632 831.03 372.632C829.686 372.632 828.406 372.376 827.19 371.864C826.038 371.352 825.014 370.648 824.118 369.752C823.222 368.856 822.518 367.832 822.006 366.68C821.494 365.464 821.238 364.184 821.238 362.84ZM868.056 406.136C868.056 407.8 868.344 409.336 868.92 410.744C869.56 412.088 870.36 413.272 871.32 414.296C872.344 415.32 873.528 416.12 874.872 416.696C876.28 417.272 877.752 417.56 879.288 417.56C880.824 417.56 882.264 417.272 883.608 416.696C885.016 416.12 886.2 415.32 887.16 414.296C888.184 413.272 888.984 412.088 889.56 410.744C890.2 409.336 890.52 407.832 890.52 406.232C890.52 404.696 890.2 403.256 889.56 401.912C888.984 400.504 888.184 399.288 887.16 398.264C886.2 397.24 885.016 396.44 883.608 395.864C882.264 395.288 880.824 395 879.288 395C877.752 395 876.28 395.288 874.872 395.864C873.528 396.44 872.344 397.24 871.32 398.264C870.36 399.288 869.56 400.472 868.92 401.816C868.344 403.16 868.056 404.6 868.056 406.136ZM849.72 405.944C849.72 402.296 850.456 398.904 851.928 395.768C853.4 392.568 855.448 389.816 858.072 387.512C860.696 385.144 863.8 383.288 867.384 381.944C871.032 380.6 875 379.928 879.288 379.928C883.512 379.928 887.416 380.6 891 381.944C894.648 383.224 897.784 385.048 900.408 387.416C903.096 389.72 905.176 392.504 906.648 395.768C908.12 398.968 908.856 402.52 908.856 406.424C908.856 410.328 908.088 413.912 906.552 417.176C905.08 420.376 903.032 423.16 900.408 425.528C897.784 427.832 894.616 429.624 890.904 430.904C887.256 432.184 883.288 432.824 879 432.824C874.776 432.824 870.872 432.184 867.288 430.904C863.704 429.624 860.6 427.8 857.976 425.432C855.416 423.064 853.4 420.248 851.928 416.984C850.456 413.656 849.72 409.976 849.72 405.944ZM918.858 381.752H936.234V387.992C938.602 385.112 941.002 383.192 943.434 382.232C945.866 381.208 948.714 380.696 951.978 380.696C955.434 380.696 958.378 381.272 960.81 382.424C963.306 383.512 965.418 385.08 967.146 387.128C968.554 388.792 969.514 390.648 970.026 392.696C970.538 394.744 970.794 397.08 970.794 399.704V431H953.418V406.136C953.418 403.704 953.226 401.752 952.842 400.28C952.522 398.744 951.914 397.528 951.018 396.632C950.25 395.864 949.386 395.32 948.426 395C947.466 394.68 946.442 394.52 945.354 394.52C942.41 394.52 940.138 395.416 938.538 397.208C937.002 398.936 936.234 401.432 936.234 404.696V431H918.858V381.752ZM1015.25 394.424C1012.05 392.76 1008.91 391.928 1005.84 391.928C1004.24 391.928 1002.93 392.248 1001.9 392.888C1000.94 393.528 1000.46 394.392 1000.46 395.48C1000.46 396.056 1000.53 396.536 1000.66 396.92C1000.85 397.24 1001.2 397.56 1001.71 397.88C1002.29 398.2 1003.09 398.488 1004.11 398.744C1005.2 399 1006.61 399.32 1008.34 399.704C1013.14 400.664 1016.72 402.392 1019.09 404.888C1021.46 407.32 1022.64 410.456 1022.64 414.296C1022.64 417.176 1022.06 419.768 1020.91 422.072C1019.76 424.376 1018.16 426.328 1016.11 427.928C1014.06 429.464 1011.6 430.648 1008.72 431.48C1005.84 432.376 1002.67 432.824 999.216 432.824C992.56 432.824 986 430.936 979.536 427.16L985.872 414.872C990.736 418.2 995.344 419.864 999.696 419.864C1001.3 419.864 1002.61 419.512 1003.63 418.808C1004.66 418.104 1005.17 417.208 1005.17 416.12C1005.17 415.48 1005.07 414.968 1004.88 414.584C1004.75 414.136 1004.43 413.752 1003.92 413.432C1003.41 413.048 1002.64 412.728 1001.62 412.472C1000.66 412.152 999.376 411.832 997.776 411.512C992.4 410.424 988.624 408.824 986.448 406.712C984.336 404.536 983.28 401.56 983.28 397.784C983.28 395.032 983.792 392.568 984.816 390.392C985.84 388.152 987.312 386.264 989.232 384.728C991.152 383.192 993.456 382.008 996.144 381.176C998.896 380.344 1001.94 379.928 1005.26 379.928C1010.7 379.928 1015.98 380.984 1021.1 383.096L1015.25 394.424ZM1096.53 385.016C1101.01 382.328 1103.25 379.32 1103.25 375.992C1103.25 374.2 1102.64 372.664 1101.42 371.384C1100.27 370.04 1098.77 369.368 1096.91 369.368C1095.18 369.368 1093.74 369.944 1092.59 371.096C1091.44 372.248 1090.86 373.688 1090.86 375.416C1090.86 377.72 1092.75 380.92 1096.53 385.016ZM1088.75 400.76C1084.21 403.576 1081.93 406.392 1081.93 409.208C1081.93 410.232 1082.16 411.192 1082.61 412.088C1083.05 412.92 1083.66 413.656 1084.43 414.296C1085.2 414.872 1086.06 415.352 1087.02 415.736C1088.05 416.056 1089.13 416.216 1090.29 416.216C1093.49 416.216 1096.78 415.16 1100.17 413.048L1088.75 400.76ZM1113.9 403.352C1117.74 399.704 1120.88 396.248 1123.31 392.984L1133.97 403.256C1132.88 404.728 1131.63 406.232 1130.22 407.768C1128.88 409.24 1127.31 410.808 1125.52 412.472L1124.08 413.816L1140.21 431H1116.78L1110.45 424.376C1101.81 430.136 1093.52 433.016 1085.58 433.016C1082.19 433.016 1079.09 432.504 1076.27 431.48C1073.45 430.456 1071.02 429.016 1068.97 427.16C1066.93 425.304 1065.33 423.128 1064.17 420.632C1063.02 418.072 1062.45 415.288 1062.45 412.28C1062.45 409.592 1062.8 407.224 1063.5 405.176C1064.27 403.064 1065.55 401.048 1067.34 399.128C1068.69 397.656 1070.16 396.408 1071.76 395.384C1073.42 394.296 1075.44 393.208 1077.81 392.12L1079.82 391.16L1078.57 389.72C1074.86 385.048 1073.01 380.6 1073.01 376.376C1073.01 373.56 1073.58 370.936 1074.73 368.504C1075.89 366.072 1077.45 363.992 1079.44 362.264C1081.49 360.472 1083.89 359.096 1086.64 358.136C1089.39 357.112 1092.37 356.6 1095.57 356.6C1098.83 356.6 1101.84 357.112 1104.59 358.136C1107.34 359.096 1109.71 360.472 1111.69 362.264C1113.74 364.056 1115.31 366.168 1116.4 368.6C1117.55 370.968 1118.12 373.56 1118.12 376.376C1118.12 378.296 1117.9 380.056 1117.45 381.656C1117.01 383.192 1116.24 384.664 1115.15 386.072C1114.13 387.416 1112.75 388.728 1111.02 390.008C1109.36 391.224 1107.28 392.472 1104.78 393.752L1113.9 403.352ZM610.415 510.808C606.063 505.496 600.687 502.84 594.287 502.84C591.471 502.84 588.847 503.352 586.415 504.376C584.047 505.4 581.999 506.808 580.271 508.6C578.543 510.328 577.167 512.408 576.143 514.84C575.183 517.272 574.703 519.896 574.703 522.712C574.703 525.592 575.183 528.248 576.143 530.68C577.167 533.112 578.543 535.224 580.271 537.016C582.063 538.808 584.143 540.216 586.511 541.24C588.879 542.264 591.439 542.776 594.191 542.776C600.207 542.776 605.615 540.216 610.415 535.096V557.368L608.495 558.04C605.615 559.064 602.927 559.8 600.431 560.248C597.935 560.76 595.471 561.016 593.039 561.016C588.047 561.016 583.247 560.088 578.639 558.232C574.095 556.312 570.063 553.656 566.543 550.264C563.087 546.808 560.303 542.744 558.191 538.072C556.079 533.336 555.023 528.184 555.023 522.616C555.023 517.048 556.047 511.96 558.095 507.352C560.207 502.68 562.991 498.68 566.447 495.352C569.967 491.96 574.031 489.336 578.639 487.48C583.247 485.56 588.079 484.6 593.135 484.6C596.015 484.6 598.831 484.92 601.583 485.56C604.399 486.136 607.343 487.064 610.415 488.344V510.808ZM637.102 534.136C637.102 535.8 637.39 537.336 637.966 538.744C638.606 540.088 639.406 541.272 640.366 542.296C641.39 543.32 642.574 544.12 643.918 544.696C645.326 545.272 646.798 545.56 648.334 545.56C649.87 545.56 651.31 545.272 652.654 544.696C654.062 544.12 655.246 543.32 656.206 542.296C657.23 541.272 658.03 540.088 658.606 538.744C659.246 537.336 659.566 535.832 659.566 534.232C659.566 532.696 659.246 531.256 658.606 529.912C658.03 528.504 657.23 527.288 656.206 526.264C655.246 525.24 654.062 524.44 652.654 523.864C651.31 523.288 649.87 523 648.334 523C646.798 523 645.326 523.288 643.918 523.864C642.574 524.44 641.39 525.24 640.366 526.264C639.406 527.288 638.606 528.472 637.966 529.816C637.39 531.16 637.102 532.6 637.102 534.136ZM618.766 533.944C618.766 530.296 619.502 526.904 620.974 523.768C622.446 520.568 624.494 517.816 627.118 515.512C629.742 513.144 632.846 511.288 636.43 509.944C640.078 508.6 644.046 507.928 648.334 507.928C652.558 507.928 656.462 508.6 660.046 509.944C663.694 511.224 666.83 513.048 669.454 515.416C672.142 517.72 674.222 520.504 675.694 523.768C677.166 526.968 677.902 530.52 677.902 534.424C677.902 538.328 677.134 541.912 675.598 545.176C674.126 548.376 672.078 551.16 669.454 553.528C666.83 555.832 663.662 557.624 659.95 558.904C656.302 560.184 652.334 560.824 648.046 560.824C643.822 560.824 639.918 560.184 636.334 558.904C632.75 557.624 629.646 555.8 627.022 553.432C624.462 551.064 622.446 548.248 620.974 544.984C619.502 541.656 618.766 537.976 618.766 533.944ZM727.169 534.52C727.169 532.984 726.881 531.544 726.305 530.2C725.793 528.792 725.025 527.576 724.001 526.552C722.977 525.528 721.761 524.728 720.353 524.152C719.009 523.512 717.537 523.192 715.937 523.192C714.401 523.192 712.961 523.48 711.617 524.056C710.273 524.632 709.089 525.432 708.065 526.456C707.105 527.48 706.305 528.696 705.665 530.104C705.089 531.448 704.801 532.888 704.801 534.424C704.801 535.96 705.089 537.4 705.665 538.744C706.241 540.088 707.041 541.272 708.065 542.296C709.089 543.256 710.273 544.056 711.617 544.696C713.025 545.272 714.497 545.56 716.033 545.56C717.569 545.56 719.009 545.272 720.353 544.696C721.697 544.12 722.849 543.32 723.809 542.296C724.833 541.272 725.633 540.088 726.209 538.744C726.849 537.4 727.169 535.992 727.169 534.52ZM705.281 583.576H687.905V509.752H705.281V515.224C708.993 510.552 714.049 508.216 720.449 508.216C723.969 508.216 727.233 508.92 730.241 510.328C733.313 511.672 735.969 513.528 738.209 515.896C740.449 518.264 742.177 521.048 743.393 524.248C744.673 527.448 745.313 530.872 745.313 534.52C745.313 538.168 744.673 541.56 743.393 544.696C742.177 547.832 740.449 550.584 738.209 552.952C736.033 555.32 733.441 557.176 730.433 558.52C727.425 559.864 724.161 560.536 720.641 560.536C714.497 560.536 709.377 558.424 705.281 554.2V583.576ZM770.542 552.28L746.734 509.752H766.894L780.046 535L792.814 509.752H812.782L773.23 583.576H753.742L770.542 552.28ZM818.78 509.752H836.156V517.816C838.012 514.872 840.284 512.632 842.972 511.096C845.66 509.496 848.796 508.696 852.38 508.696C852.828 508.696 853.308 508.696 853.82 508.696C854.396 508.696 855.036 508.76 855.74 508.888V525.496C853.436 524.344 850.94 523.768 848.252 523.768C844.22 523.768 841.18 524.984 839.132 527.416C837.148 529.784 836.156 533.272 836.156 537.88V559H818.78V509.752ZM880.875 509.752V559H863.499V509.752H880.875ZM862.347 490.84C862.347 489.496 862.603 488.248 863.115 487.096C863.627 485.88 864.331 484.824 865.227 483.928C866.123 483.032 867.147 482.328 868.299 481.816C869.515 481.304 870.795 481.048 872.139 481.048C873.483 481.048 874.731 481.304 875.883 481.816C877.099 482.328 878.155 483.032 879.051 483.928C879.947 484.824 880.651 485.88 881.163 487.096C881.675 488.248 881.931 489.496 881.931 490.84C881.931 492.184 881.675 493.464 881.163 494.68C880.651 495.832 879.947 496.856 879.051 497.752C878.155 498.648 877.099 499.352 875.883 499.864C874.731 500.376 873.483 500.632 872.139 500.632C870.795 500.632 869.515 500.376 868.299 499.864C867.147 499.352 866.123 498.648 865.227 497.752C864.331 496.856 863.627 495.832 863.115 494.68C862.603 493.464 862.347 492.184 862.347 490.84ZM908.877 534.136C908.877 535.736 909.165 537.24 909.741 538.648C910.317 539.992 911.085 541.176 912.045 542.2C913.069 543.224 914.253 544.024 915.597 544.6C917.005 545.176 918.509 545.464 920.109 545.464C921.645 545.464 923.085 545.176 924.429 544.6C925.837 544.024 927.021 543.224 927.981 542.2C929.005 541.176 929.805 539.992 930.381 538.648C931.021 537.24 931.341 535.768 931.341 534.232C931.341 532.632 931.021 531.16 930.381 529.816C929.805 528.472 929.005 527.288 927.981 526.264C926.957 525.24 925.741 524.44 924.333 523.864C922.989 523.288 921.581 523 920.109 523C918.573 523 917.133 523.32 915.789 523.96C914.445 524.536 913.261 525.336 912.237 526.36C911.213 527.32 910.381 528.472 909.741 529.816C909.165 531.16 908.877 532.6 908.877 534.136ZM947.853 509.752V555.64C947.853 558.392 947.693 560.856 947.373 563.032C947.053 565.208 946.605 567.128 946.029 568.792C945.261 570.904 944.045 572.856 942.381 574.648C940.781 576.504 938.829 578.104 936.525 579.448C934.221 580.792 931.597 581.848 928.653 582.616C925.773 583.384 922.637 583.768 919.245 583.768C915.405 583.768 911.885 583.288 908.685 582.328C905.485 581.368 902.669 580.024 900.237 578.296C897.869 576.632 895.917 574.648 894.381 572.344C892.845 570.104 891.821 567.64 891.309 564.952H910.893C912.109 568.216 914.861 569.848 919.149 569.848C922.797 569.848 925.581 568.824 927.501 566.776C929.485 564.728 930.477 561.88 930.477 558.232V553.528C929.197 554.744 927.949 555.768 926.733 556.6C925.581 557.368 924.397 558.008 923.181 558.52C921.965 559.032 920.685 559.384 919.341 559.576C917.997 559.832 916.525 559.96 914.925 559.96C911.405 559.96 908.173 559.352 905.229 558.136C902.285 556.92 899.725 555.224 897.549 553.048C895.437 550.872 893.773 548.28 892.557 545.272C891.405 542.2 890.829 538.808 890.829 535.096C890.829 531.32 891.469 527.832 892.749 524.632C894.029 521.368 895.757 518.552 897.933 516.184C900.173 513.752 902.797 511.864 905.805 510.52C908.877 509.112 912.205 508.408 915.789 508.408C921.613 508.408 926.509 510.584 930.477 514.936V509.752H947.853ZM959.686 479.32H977.062V515.992C979.43 513.112 981.83 511.192 984.262 510.232C986.694 509.208 989.542 508.696 992.806 508.696C999.014 508.696 1003.69 510.424 1006.82 513.88C1010.02 517.272 1011.62 521.88 1011.62 527.704V559H994.246V534.136C994.246 531.64 994.054 529.624 993.67 528.088C993.286 526.552 992.646 525.368 991.75 524.536C990.214 523.192 988.358 522.52 986.182 522.52C983.238 522.52 980.966 523.416 979.366 525.208C977.83 526.936 977.062 529.432 977.062 532.696V559H959.686V479.32ZM1042.83 524.248V559H1025.45V524.248H1019.69V509.752H1025.45V494.968H1042.83V509.752H1052.72V524.248H1042.83Z" fill="#FCF7FB"></path></g><defs><clipPath id="clip0_5_2"><rect width="1200" height="900" fill="white"></rect></clipPath><clipPath id="clip1_5_2"><rect width="677" height="902" fill="white" transform="translate(0 -2)"></rect></clipPath></defs></svg> 