<?xml version="1.0" encoding="utf-8"?>
<!-- Generator: Adobe Illustrator 29.3.1, SVG Export Plug-In . SVG Version: 9.03 Build 55982)  -->
<svg version="1.1" xmlns="http://www.w3.org/2000/svg" xmlns:xlink="http://www.w3.org/1999/xlink" x="0px" y="0px"
	 viewBox="0 0 1898 386" style="enable-background:new 0 0 1898 386;" xml:space="preserve">
<style type="text/css">
	.st0{fill:#FFFFFF;}
	.st1{fill:#FFDD00;}
</style>
<g id="Guides">
</g>
<g id="Black__x28_JPG_x29_">
</g>
<g id="Black">
</g>
<g id="White">
	<g>
		<path class="st0" d="M1787.3,381.4c-43.1,0-76.1-7.6-98.2-22.5v-66.7c21.4,22.2,53.3,33.5,94.8,33.5c30.4,0,45.9-9.5,45.9-28.3
			c0-16.2-12.5-22.5-51.3-26c-34.3-3.2-56.9-10.1-70.9-21.6c-14.2-11.7-20.8-29.2-20.8-55c0-52.1,42.6-85.7,108.4-85.7
			c31.1,0,60.6,5.8,81.2,16v65.5c-18-16.8-45.5-25.7-79.5-25.7c-30.4,0-45.9,9.3-45.9,27.7c0,16.1,15.8,20,46.8,22
			c35.5,2.3,59.1,9.5,74.3,22.8c14.9,13,21.8,32.1,21.8,60.1C1894.1,350,1854.2,381.4,1787.3,381.4z"/>
		<path class="st0" d="M1304.1,381.4c-41.7,0-77.4-13.2-103.3-38.1c-25.7-24.7-39.2-58.7-39.2-98.1c0-39.5,13.6-73.4,39.2-98.1
			c25.9-24.9,61.6-38.1,103.3-38.1c35.4,0,60.2,5.7,80.1,18.6v73.6c-17.8-21.5-41.4-31.9-72.1-31.9c-50,0-81,29.1-81,75.9
			c0,22.6,7.5,41.7,21.7,55.2c14.3,13.6,34.8,20.8,59.3,20.8c30.5,0,54.8-10.9,72.1-32.4v74.2C1365.5,375.5,1340,381.4,1304.1,381.4
			z"/>
		<polygon class="st0" points="1591.5,375.8 1512.5,269.5 1492.3,285.5 1492.3,375.8 1423.5,375.8 1423.5,4.6 1492.3,4.6 
			1492.3,209.5 1496.3,211.1 1587.8,114.2 1673.8,114.2 1566.9,231.4 1678.4,375.8 		"/>
		<rect x="750.7" y="4.6" class="st0" width="68.8" height="371.2"/>
		<path class="st0" d="M659.8,187.8l-1.9-0.6v-1.7l1.6-0.7c31.3-14.3,45.7-42,45.7-79.1c0-33-11.1-58.3-33-75.3
			c-22.1-17.1-55.4-25.8-98.7-25.8H414v371.2h173.7c43.2,0,76.2-8.7,98.2-25.9c21.8-17.1,32.9-42.7,32.9-76.3
			C718.8,230.9,699.9,201,659.8,187.8z M492.5,74h79.9c35.7,0,53.8,13.7,53.8,40.8c0,28.2-19.5,41.9-59.5,41.9h-74.2V74z
			 M584.8,306.4h-92.4v-84.9h87.3c39.5,0,59.5,14.5,59.5,43C639.2,292.7,621.4,306.4,584.8,306.4z"/>
		<path class="st0" d="M1072.5,114.6l-2.8,34.6h-1.4l-0.8-1.2c-16.8-25.2-50.3-39.1-87.6-39.1c-74,0-127.7,57.3-127.7,136.2
			c0,78.9,53.7,136.2,127.7,136.2c37.6,0,69.9-13.9,87.6-40.2l0.8-1.2h2.1l2.3,35.7h56.5V114.6H1072.5z M992.3,321.1
			c-41.7,0-70.8-31.2-70.8-75.9c0-44.7,29.1-75.9,70.8-75.9c41.4,0,70.3,31.2,70.3,75.9C1062.5,289.9,1033.6,321.1,992.3,321.1z"/>
		<g>
			<path class="st1" d="M299.8,268.1c0,59.4-48.2,107.6-107.6,107.6H3.9V219.9h188.2c28.8,0,55-11.3,74.3-29.7
				c18.7,17.8,31,42.3,33,69.7C299.7,262.6,299.8,265.4,299.8,268.1"/>
			<path class="st1" d="M299.8,112.3c0,30.6-12.8,58.3-33.4,77.9c-19.3-18.4-45.5-29.7-74.3-29.7H3.9V4.7h188.2
				c58.8,0,106.7,47.2,107.6,105.8C299.8,111.1,299.8,111.7,299.8,112.3"/>
		</g>
	</g>
</g>
</svg>
