<?xml version="1.0" encoding="utf-8"?>
<!-- Generator: Adobe Illustrator 29.3.1, SVG Export Plug-In . SVG Version: 9.03 Build 55982)  -->
<svg version="1.1" xmlns="http://www.w3.org/2000/svg" xmlns:xlink="http://www.w3.org/1999/xlink" x="0px" y="0px"
	 viewBox="0 0 1898 386" style="enable-background:new 0 0 1898 386;" xml:space="preserve">
<style type="text/css">
	.st0{fill:#FFDD00;}
	.st1{fill:#222720;}
</style>
<g id="Guides">
</g>
<g id="Black__x28_JPG_x29_">
</g>
<g id="Black">
</g>
<g id="White">
	<g>
		<path class="st0" d="M306.6,268.7c0,59.9-48.6,108.5-108.5,108.5H8.4V220.2h189.7c29,0,55.4-11.4,74.9-30
			c18.8,18,31.2,42.7,33.3,70.3C306.5,263.2,306.6,265.9,306.6,268.7"/>
		<path class="st0" d="M306.6,111.6c0,30.9-12.9,58.8-33.6,78.5c-19.5-18.6-45.8-30-74.9-30H8.4V3.1h189.7
			c59.3,0,107.5,47.6,108.5,106.7C306.6,110.4,306.6,111,306.6,111.6"/>
	</g>
	<path class="st1" d="M638,264c0,26.5-16.9,38.9-51.3,38.9h-89V224h83.9C620,224,638,238.1,638,264 M625.1,115.3
		c0,25.9-17.5,38.9-56.3,38.9h-71V77.5h76.6C608.2,77.5,625.1,89.9,625.1,115.3 M660.5,186.8v-1.1c32.1-14.6,48.4-41.1,48.4-79.4
		C709,38.6,663.4,3.1,575.5,3.1H414.4v374.1h175.2c87.3,0,133-35.5,133-104.2C722.5,229.6,701.7,200.3,660.5,186.8 M748.8,377.2
		h73.8V3.1h-73.8V377.2z M1058.4,244.8c0,42.8-27.6,72.7-67,72.7c-40,0-67.6-29.9-67.6-72.7s27.6-72.7,67.6-72.7
		C1030.8,172.2,1058.4,202,1058.4,244.8 M1068.5,377.2h61.4V112.4h-61.4l-2.8,34.4h-1.1c-16.9-25.3-46.8-40-85.6-40
		c-74.9,0-129.6,58-129.6,138s54.6,138,129.6,138c39.4,0,68.7-15.2,86.2-41.1h1.1L1068.5,377.2z M1301,382.9
		c37.2,0,63.1-6.2,82.3-19.7v-79.4h-2.8c-16.9,22.5-40.6,33.8-71.5,33.8c-48.4,0-77.7-28.7-77.7-72.7c0-44.5,29.3-72.7,77.7-72.7
		c30.4,0,54.1,10.7,71.5,33.2h2.8v-78.9c-20.3-13.5-45.6-19.7-82.3-19.7c-86.2,0-144.2,56.9-144.2,138S1214.8,382.9,1301,382.9
		 M1678.3,377.3l-112.8-146l108.7-119.3h-92.8l-90.9,96.3V3.1h-73.8v374.1h73.8v-91l16.8-13.3l77.6,104.4H1678.3z M1747.7,192.4
		c0-16.3,14.1-24.8,42.8-24.8c34.4,0,61.4,9,78.9,26.5h2.8v-70.4c-20.8-10.7-51.3-16.9-83.4-16.9c-67,0-110.4,34.4-110.4,87.9
		c0,52.4,26.5,72.7,93.5,78.9c37.2,3.4,48.4,9,48.4,23.1c0,16.9-14.1,25.3-42.8,25.3c-41.1,0-72.7-11.3-93.5-33.8h-3.4v71
		c22.5,15.8,56.3,23.7,100.3,23.7c68.2,0,108.7-32.1,108.7-86.2c0-55.8-27.6-80.6-98-85.1C1756.7,209.3,1747.7,204.3,1747.7,192.4"
		/>
</g>
</svg>
