<svg xmlns="http://www.w3.org/2000/svg" id="engage" viewBox="0 0 148 43">
		<path d="M135.32 29.37c.5.02.97 0 1.45-.02 3.53-.22 6.54-1.46 8.94-3.7 1.6-1.46 2.26-2.96 2.25-3.4 0-.37-1.4-1.54-1.97-1.56-.33 0-.58.27-.86.58-.1.13-.23.26-.35.38-2.23 2.1-4.84 3.3-7.55 3.47-.23.02-.46.02-.68 0-2.8-.08-4.9-1.84-5.83-4.82l-.05-.2h.2c10.44-.8 13.95-7.2 13.7-11.05-.3-4.95-4.5-6.84-7.97-6.95-.42-.02-.86 0-1.3.02-3.6.22-6.8 1.96-9.02 4.9-2.23 2.93-3.32 6.85-3.05 11.02.32 5.06 3.7 11.06 12.12 11.33zm-5.12-13.23c.23-4.1 1.4-6.5 2.35-7.8 1.08-1.45 2.47-2.33 3.73-2.32.93 0 1.58.32 2 .96.67 1.06.47 2.84-.08 4.04-1.86 4.06-5.7 5.06-7.82 5.3l-.2.02.02-.2z"></path>
		<path d="M60.68 42.94c4.2 0 7.8-.88 10.38-2.54 2.56-1.64 3.92-3.92 3.92-6.6 0-4.82-4.85-6.13-9.08-6.73l-3.45-.34c-4.05-.6-5-.82-5-1.67 0-.36.32-.8.94-1.28l.05-.05.08.02c.92.23 1.88.35 2.84.35 3.02 0 5.86-1.14 8-3.22 2.15-2.07 3.33-4.83 3.33-7.76 0-2.85-1.1-5.55-3.14-7.6l-.16-.16.2-.1c.94-.46 1.98-.7 2.95-.7.46 0 .9.05 1.24.16.12.04.25.06.37.06h.05c.4 0 .78-.2 1.04-.57.45-.62.48-1.64.1-2.72C75 .55 74 0 72.65 0c-.78 0-1.62.18-2.37.5-1.43.6-2.7 1.5-3.8 2.68l-.1.1-.1-.07c-1.42-.65-2.94-1.02-4.53-1.07h-.4c-6.23 0-11.3 4.9-11.32 10.97 0 3.6 1.8 6.97 4.85 9.03l.22.15-.23.13c-2.3 1.28-3.62 2.9-3.63 4.45 0 1 .47 1.97 1.34 2.75l.18.15-.2.12c-3.35 1.95-4.84 3.88-4.84 6.27 0 4.14 5 6.8 12.94 6.8zm.73-36.9h.08c2.24.06 4 3.17 4 7.08-.02 3.9-1.84 7.08-4.1 7.08h-.06c-2.24-.08-4-3.2-4-7.1.02-3.9 1.84-7.08 4.1-7.07zm-4.6 25.42l.07-.05.07.03c1.25.26 2.1.43 3.93.65l3.64.45c3.95.6 4.5 1.67 4.5 2.74 0 2.1-3.1 3.57-7.5 3.57-.27 0-.53 0-.8-.02-4.22-.14-6.64-1.37-6.64-3.4 0-1.35.87-2.6 2.75-3.96z"></path>
		<path d="M96.28 29.27h.04c.03 0 .12-.02.27-.2.72-.95 1.4-4.06 1.33-4.36-.02-.06-.2-.18-.36-.3-.46-.3-1.16-.78-1.27-1.78-.15-1.37-.35-10.4-.35-10.78-.05-4.45-1.45-7.26-4.28-8.58-1.48-.7-3.72-1.1-6-1.07-8.77.1-9.7 3.96-9.67 5.62 0 .4.04.82.16 1.22.5 1.62 2 2.72 3.7 2.7.35 0 .7-.05 1.07-.16.6-.18 1.02-.75 1.02-1.4-.02-1.47.28-2.62.9-3.38.63-.78 1.58-1.18 2.82-1.2h.3c2.4.1 3.5 1.48 3.52 4.5v1.97h-.14c-10.55.98-15.65 4.33-15.58 10.26.04 4.44 2.95 7.23 7.5 7.2 3.15-.05 6.14-1.58 8.44-4.33l.2-.25.08.3c.66 2.46 4.17 4.04 6.28 4.02zm-6.72-8.23c-1.67 1.7-4.22 3.4-6.12 3.42h-.22c-1.84-.06-2.9-1.12-2.92-2.9-.02-1.84 1.13-5.07 9.06-6.15l.2-.02.05 5.6-.04.06z"></path>
		<path d="M108.77 42.95c8.55 0 14.3-3.67 14.3-9.13 0-4.83-4.85-6.14-9.08-6.74l-3.46-.34c-4.04-.6-5-.82-5-1.67 0-.36.32-.8.94-1.28l.06-.06.08.02c.93.23 1.88.35 2.84.35 3.02.02 5.87-1.13 8-3.2 2.15-2.08 3.33-4.84 3.33-7.77 0-2.85-1.12-5.54-3.14-7.6l-.16-.16.2-.1c.93-.46 1.97-.7 2.94-.7.46 0 .9.05 1.25.16.1.04.24.06.37.06h.04c.43 0 .8-.2 1.06-.58.44-.63.48-1.65.1-2.72-.35-.94-1.33-1.5-2.7-1.5-.8 0-1.63.2-2.37.5-1.43.62-2.7 1.52-3.8 2.7l-.1.08-.1-.06c-1.43-.66-2.95-1.03-4.54-1.08h-.38c-6.25 0-11.33 4.9-11.34 10.97 0 3.6 1.8 6.98 4.85 9.04l.22.15-.24.12c-2.3 1.27-3.6 2.9-3.6 4.44 0 1 .45 1.97 1.32 2.75l.17.16-.2.12c-3.34 1.95-4.84 3.88-4.84 6.27 0 4.14 5 6.8 12.94 6.8zm.73-36.9h.08c2.23.06 3.98 3.17 3.98 7.08 0 3.9-1.83 7.08-4.07 7.08h-.1c-2.23-.07-3.98-3.18-3.97-7.08 0-3.9 1.83-7.1 4.07-7.08zm-4.6 25.42l.06-.05.07.02c1.25.26 2.1.43 3.94.65l3.63.44c3.94.6 4.48 1.67 4.48 2.74 0 2.1-3.08 3.57-7.5 3.57-.26 0-.52 0-.77-.02-4.22-.14-6.65-1.37-6.65-3.4 0-1.35.88-2.6 2.75-3.96z"></path>
		<path d="M40.8 12.52v14.7c0 .77.6 1.4 1.37 1.42h3.94c.8 0 1.43-.63 1.43-1.42v-17.1c0-3.56-1-7.84-5.9-8h-.3c-4.2 0-7.12 2.66-8.95 4.66l-.24.26-.05-.35c-.2-1.27-.74-3.35-1.25-3.8 0 0-.07-.05-.3-.05-1.53-.05-5.48 1.37-5.58 1.87-.04.2 0 .3.08.53.1.3.26.74.4 1.7.2 1.44.02 9.78.02 10.13v.04l-.03.04c-2.97 5.1-7.3 8.02-11.9 8.02-3.1 0-5.42-1.97-6.2-5.23l-.04-.2h.2c10.47-.14 14.37-6.3 14.37-10.16 0-5-4.2-7.36-8.36-7.5h-.45C5.62 2.07 0 8.6 0 17.2c0 8.32 6.54 12.14 12.82 12.14 5 0 9.04-2.1 12.34-6.44l.3-.4v4.68c0 .78.6 1.4 1.38 1.43h3.94c.78 0 1.42-.64 1.42-1.42V12.14l.04-.05c1.25-1.73 3.66-4.63 5.83-4.63 1.92 0 2.73 1.5 2.73 5.07zM7.1 16.3v-.2c.24-4.12 1.42-6.52 2.37-7.8 1.07-1.47 2.46-2.34 3.72-2.34.9 0 1.58.33 2 .97.67 1.06.47 2.83-.08 4.03-1.87 4.06-5.7 5.07-7.83 5.3l-.2.03z"></path>
	</svg>