<svg width="122" height="100" viewBox="0 0 122 100" fill="none" xmlns="http://www.w3.org/2000/svg">
<path d="M109.504 100H72.0156C70.3585 100 65.7863 100 65.7863 100C65.7863 100 65.7676 95.4076 65.7676 93.75V62.5L65.7863 44.2563C65.7301 43.5625 64.5429 27.125 76.333 14.325C85.099 4.81875 98.3636 0 115.752 0H122V17.6187L116.976 18.625C108.417 20.3375 102.462 23.7062 99.2758 28.65C97.6131 31.3133 96.6701 34.3628 96.5391 37.5H109.504C117.5 37.5 122 45.5 122 52C122 58.5 122 87.5 122 87.5C122 94.3938 116.395 100 109.504 100Z" fill="#FFDD00"/>
<path d="M43.7755 100H6.28732C4.63024 100 0.0580315 100 0.0580315 100C0.0580315 100 0.039286 95.4076 0.039286 93.75V62.5L0.0580315 44.2563C0.00179914 43.5625 -1.18534 27.125 10.6047 14.325C19.3707 4.81875 32.6353 0 50.0236 0H56.2716V17.6187L51.2482 18.625C42.6884 20.3375 36.734 23.7062 33.5475 28.65C31.8849 31.3133 30.9419 34.3628 30.8108 37.5H43.7755C51.7716 37.5 56.2716 45.5 56.2716 52C56.2716 58.5 56.2716 87.5 56.2716 87.5C56.2716 94.3938 50.6671 100 43.7755 100Z" fill="#FFDD00"/>
</svg>
