<?xml version="1.0" encoding="UTF-8"?> <svg xmlns="http://www.w3.org/2000/svg" width="586" height="673" viewBox="0 0 586 673" fill="none"><path d="M507.505 168.959L565.211 149.51" stroke="#FFED4B" stroke-width="4"></path><path d="M78.876 168.959L21.1696 149.51" stroke="#FFED4B" stroke-width="4"></path><path d="M129.509 97.8163L88.3056 52.9771" stroke="#FFED4B" stroke-width="4"></path><path d="M464.385 97.8163L505.589 52.9771" stroke="#FFED4B" stroke-width="4"></path><path d="M224.489 60.0869L209.759 0.999674" stroke="#FFED4B" stroke-width="4"></path><path d="M369.406 60.0869L384.136 0.999674" stroke="#FFED4B" stroke-width="4"></path><path d="M524.489 258.623L585.382 258.091" stroke="#FFED4B" stroke-width="4"></path><path d="M61.894 258.623L1.00074 258.091" stroke="#FFED4B" stroke-width="4"></path><path d="M520.774 346.748L578.08 367.347" stroke="#FFED4B" stroke-width="4"></path><path d="M65.6071 346.748L8.30117 367.347" stroke="#FFED4B" stroke-width="4"></path><path d="M487.364 430.012L532.973 470.362" stroke="#FFED4B" stroke-width="4"></path><path d="M99.0164 430.012L53.4081 470.362" stroke="#FFED4B" stroke-width="4"></path><path d="M295.824 539.313C276.202 539.313 256.589 539.393 236.967 539.293C220.338 539.203 208.048 528.332 205.305 511.871C199.359 476.114 184.276 444.739 159.247 418.475C132.353 390.244 114.716 357.282 107.982 318.859C89.2478 211.857 159.556 115.765 259.802 97.1877C354.939 79.5585 446.975 132.516 476.483 223.127C499.836 294.861 485.461 359.917 434.625 415.839C409.257 443.74 392.418 475.205 386.423 512.49C383.839 528.542 371.05 539.223 354.67 539.293C335.058 539.373 315.436 539.313 295.824 539.313Z" fill="#FFED4B"></path><path d="M296.464 554.218C314.242 554.218 332.019 554.208 349.806 554.218C363.354 554.228 372.208 562.731 372.238 576.312C372.258 587.012 372.495 597.811 371.22 608.383C369.768 620.37 363.898 629.804 351.239 633.407C350.053 633.743 348.818 635.475 348.433 636.802C346.743 642.652 345.448 648.621 343.838 654.501C340.537 666.557 332.157 672.942 319.687 672.971C304.044 673.011 288.411 673.011 272.768 672.971C260.356 672.942 251.927 666.488 248.646 654.451C247.085 648.73 245.889 642.909 244.308 637.198C243.923 635.812 242.905 633.842 241.788 633.525C226.847 629.269 221.748 617.737 220.602 603.968C219.772 593.981 220.009 583.854 220.434 573.817C220.908 562.335 229.663 554.307 241.156 554.248C259.586 554.149 278.025 554.218 296.464 554.218Z" fill="#7381FF"></path><path d="M294.588 329.8C322.322 322.227 349.083 315.757 375.267 307.438C391.261 302.362 406.307 294.333 421.875 287.877C424.084 286.967 427.362 286.415 429.31 287.408C469.553 307.797 511.978 321.04 557.132 327.414C557.256 329.828 557.461 332.035 557.461 334.256C557.475 372.358 558.572 410.501 557.256 448.561C554.115 538.919 511.8 604.597 431.545 645.499C427.746 647.43 424.715 647.568 420.764 645.595C347.492 608.915 304.752 549.982 296.206 468.04C292.956 436.905 294.917 405.217 294.615 373.792C294.478 358.48 294.588 343.154 294.588 329.8ZM319.826 450.658C340.784 471.723 361.277 492.305 381.769 512.887C391.096 522.254 395.266 522.282 404.538 512.97C445.522 471.737 486.507 430.517 527.477 389.27C529.027 387.698 530.468 386.015 531.62 384.759C526.558 379.283 521.922 374.275 516.422 368.33C475.095 409.908 434.042 451.196 392.18 493.326C373.004 473.861 354.103 454.659 335.325 435.58C330.25 440.533 325.354 445.292 319.826 450.658Z" fill="#00155E"></path></svg> 