<?xml version="1.0" encoding="UTF-8"?> <svg xmlns="http://www.w3.org/2000/svg" width="2031" height="507" viewBox="0 0 2031 507" fill="none"><path d="M735 0C741.17 3.03 747.95 5.25 753.4 9.26C766.17 18.66 770.4 32.21 770.38 47.7C770.27 140.66 770.33 233.63 770.33 326.59C770.33 371.07 770.3 415.56 770.35 460.04C770.36 471.46 768 482.01 760.57 491.11C754.7 498.29 747.32 503.01 738.58 505.82C737.69 506.11 736.86 506.6 736 506.99C502 506.99 268 506.99 34 506.99C33.15 506.59 32.33 506.09 31.44 505.82C21.49 502.74 13.13 497.21 7.56 488.42C4.37 483.38 2.48 477.5 0 472C0 326.33 0 180.67 0 35C0.35 34.46 0.9 33.95 1.03 33.36C3.14 23.74 7.95 15.55 15.9 9.96C21.72 5.87 28.59 3.27 35 0C268.33 0 501.67 0 735 0ZM372.97 26.07C371.14 25.99 369.68 25.87 368.22 25.87C259.08 25.86 149.94 25.86 40.8 25.87C30.96 25.87 25.86 31.06 25.86 41.03C25.85 182.83 25.85 324.63 25.86 466.43C25.86 476.21 30.84 481.15 40.56 481.15C149.53 481.15 258.51 481.15 367.48 481.15C369.25 481.15 371.01 481.15 372.97 481.15C372.97 329.21 372.97 177.95 372.97 26.07ZM546.58 161.59C526.03 166.99 505.63 172.47 485.16 177.63C481.81 178.47 477.35 179.29 474.7 177.81C461.15 170.2 446.36 170.53 431.67 169.96C430.71 169.92 429.18 170.91 428.81 171.8C427.61 174.68 426.31 177.68 425.95 180.73C424.38 194.28 426.01 207.6 430.54 220.41C441.83 252.28 458.94 280.97 479.2 307.87C484.23 314.55 484.35 314.44 492.34 311.43C493.73 310.91 495.16 310.46 496.61 310.15C507.91 307.8 519.21 305.4 530.55 303.21C535.8 302.2 541.12 301.61 546.96 300.75C547.6 319.96 548.54 338.22 548.74 356.49C548.97 378.44 548.84 400.44 553.05 422.03C555.34 433.79 559.22 445.29 563.1 456.66C565.12 462.59 567.12 462.61 572.3 459.44C588.17 449.72 594.18 434.46 595 417.04C595.78 400.41 595.15 383.72 595.15 367.06C595.15 342.62 595.15 318.17 595.15 293.59C602.15 292.47 607.82 291.52 613.5 290.66C625.92 288.79 638.31 286.72 650.77 285.2C659.66 284.12 668.68 284.11 677.58 283.04C686.06 282.02 693.11 278.37 696.43 269.73C699.46 261.87 696.24 256 690.81 250.54C689.85 249.57 689.62 246.94 690.18 245.53C694.85 233.9 702.7 224.88 713.58 218.63C726.16 211.4 728.53 204.77 722.69 191.5C713.75 171.21 699.57 155.5 680.19 144.81C675.91 142.45 670.32 140.62 665.63 141.16C649.87 142.96 634.24 145.91 618.56 148.46C612.95 149.37 607.35 150.37 601.75 151.33C601.18 148.46 600.61 146.54 600.44 144.59C599.67 135.7 598.71 127.66 607.84 120.75C617.06 113.77 619.61 100.16 606.35 93.12C589.68 84.27 573.73 74.04 557.69 64.05C549.6 59.01 541.11 61.64 540.03 71.27C539.14 79.14 539.86 87.51 541.53 95.3C546.2 117.05 547.72 138.94 546.58 161.59Z" fill="white"></path><path d="M2031 297C2027.71 297.33 2024.43 297.93 2021.14 297.95C2012.03 297.99 2005.8 292.14 2005.02 283.03C2004.82 280.71 2004.86 278.37 2004.84 276.04C2004.59 244.91 2004.38 213.78 2004.07 182.65C2004.04 179.71 2003.45 176.77 2003.09 173.51C2008.63 172.36 2013.94 171.27 2020.27 169.96C2020.58 177.9 2021.1 185.32 2021.12 192.74C2021.22 220.55 2021.14 248.36 2021.17 276.17C2021.18 283.93 2022.28 285.43 2028.33 286.45C2029.2 288.27 2030.1 290.13 2030.99 292C2031 293.67 2031 295.33 2031 297Z" fill="white"></path><path d="M946.07 452.93C948.4 460.51 952.88 465.67 959.27 467.75C969.8 471.18 980.75 473.31 991.53 475.96C992.77 476.26 994.06 476.36 996.94 476.79C990.97 481.08 985.66 484.12 981.32 488.19C975.32 493.81 970.07 492.82 963.6 488.98C954.16 483.38 946.67 476.19 941.27 466.69C939.56 463.68 937.54 460.86 935.35 457.47C934.33 458.96 933.5 459.94 932.92 461.04C925.23 475.6 913.61 484.95 897.3 488.24C891.44 489.42 885.65 491 879.77 492.1C878.35 492.37 876.72 491.48 875.18 491.12C876.21 489.39 876.82 486.82 878.33 486.09C884.01 483.35 890.03 481.33 895.82 478.81C904.76 474.92 912.05 469.05 916.75 460.32C917.38 459.15 918.02 457.97 918.54 456.75C918.78 456.19 918.74 455.51 918.91 454.24C916.91 454.09 915.18 453.85 913.45 453.86C902.62 453.93 891.79 453.98 880.97 454.22C877.89 454.29 876.13 453.52 876.51 450.09C876.81 447.36 875.35 443.72 880.41 443.76C883.73 443.78 887.05 443.11 890.37 443.07C893.4 443.04 894.5 441.67 894.53 438.8C894.58 433.64 894.51 428.45 895.02 423.33C895.31 420.33 896.3 417.28 897.62 414.57C898.09 413.59 900.63 412.83 901.86 413.19C903.48 413.67 904.73 415.37 906.15 416.54C905.97 417.03 905.79 417.52 905.61 418C911.26 418 916.91 417.91 922.56 418.04C925.53 418.11 926.82 416.86 926.96 413.97C927.12 410.68 927.46 407.39 927.75 403.83C932.35 403.83 936.62 403.77 940.89 403.85C943.96 403.9 946.2 403.19 945.83 398.61C940.13 398.37 934.37 398 928.62 398.02C927.73 398.02 926.34 399.69 926.05 400.8C923.67 410.04 920.9 412.02 911.61 410.71C911.31 400 911.31 399.93 900.4 399.26C895.25 398.94 890.07 399.12 884.92 398.75C877.68 398.23 875.51 395.4 876.24 387.42C881.24 387.42 886.31 387.38 891.38 387.43C896.04 387.47 900.72 387.86 905.35 387.54C906.77 387.44 908.91 385.72 909.25 384.37C910.2 380.52 910.19 376.44 910.98 372.54C911.32 370.87 912.55 368.24 913.67 368.09C916.35 367.71 919.41 368.03 921.93 369.03C924.1 369.89 925.63 372.23 927.64 373.64C931.2 376.14 931.19 377.43 928.12 380.47C926.71 381.86 926.13 384.07 924.71 386.79C931.06 386.79 936.03 387.02 940.95 386.62C942.07 386.53 943.71 384.37 943.9 382.99C944.38 379.55 943.85 375.97 944.36 372.53C944.63 370.68 945.84 368.14 947.3 367.54C948.61 367 950.87 368.61 952.64 369.43C955.16 370.59 957.7 371.74 960.06 373.18C961.63 374.14 963.36 375.38 964.08 376.93C964.37 377.56 962.03 379.26 961.12 380.63C960.01 382.3 959.16 384.14 957.68 386.84C968.7 386.84 978.16 386.84 987.62 386.84C992.79 386.84 993.31 387.8 993.39 395.21C993.44 399.65 990.37 398.78 987.86 398.82C979.53 398.96 971.2 399.02 962.87 399.1C960.54 399.12 958.32 399.34 958.58 402.48C959.04 407.94 955.88 409.44 951.23 409.45C949.56 409.45 947.76 409.11 946.27 409.64C944.95 410.11 943.34 411.42 943.03 412.66C942.47 414.9 943.2 416.98 946.27 417.01C950.1 417.05 953.93 417.28 957.76 417.26C958.58 417.26 959.7 416.76 960.15 416.12C963.65 411.13 967.79 411.05 971.05 416.01C971.31 416.4 971.65 416.96 972.02 417C978.4 417.86 976.82 422.55 976.67 426.56C976.51 430.55 976.18 434.55 976.32 438.53C976.37 439.84 977.67 441.1 978.4 442.39C979.59 441.49 980.75 440.55 981.97 439.71C982.94 439.04 984.06 437.89 984.97 438.01C986.39 438.2 987.83 439.12 989 440.05C989.9 440.76 990.3 442.74 991.09 442.84C996.11 443.49 995.23 447.33 994.55 450.06C994.25 451.26 991.02 452.38 989.09 452.41C976.93 452.62 964.76 452.5 952.6 452.53C950.65 452.53 948.73 452.76 946.07 452.93ZM957.49 434.85C957.37 423.96 958.7 425.14 947.57 424.83C946.24 424.79 944.88 424.53 943.6 424.74C942.55 424.91 940.76 425.55 940.72 426.1C940.23 431.81 939.67 437.58 940.2 443.23C940.27 443.94 946.54 444.08 949.94 444.45C950.42 444.5 950.94 444.24 951.42 444.29C956.26 444.78 958.11 442.51 957.51 437.84C957.38 436.86 957.49 435.85 957.49 434.85ZM925.76 433.77C925.66 433.77 925.55 433.77 925.45 433.77C925.45 431.78 925.68 429.76 925.36 427.82C925.18 426.72 924.21 424.97 923.44 424.88C920.33 424.54 917.1 424.39 914.06 424.94C913.14 425.11 912.04 427.82 912.13 429.31C912.39 433.74 911.6 440.15 914.12 442.15C919.85 446.71 926.18 442.18 925.83 434.77C925.8 434.43 925.78 434.1 925.76 433.77Z" fill="white"></path><path d="M1264.91 443.85C1259.09 446.96 1256.3 451.59 1257.77 457.54C1259.57 464.82 1266.1 460.61 1270.41 461.73C1273.94 462.64 1274.91 460.2 1274.88 456.98C1274.81 449.98 1274.84 442.98 1275.07 435.99C1275.17 432.98 1274.17 431.78 1271.1 431.81C1258.6 431.9 1246.11 431.93 1233.61 431.79C1230.13 431.75 1229.35 433.3 1229.57 436.37C1230.09 443.67 1230.65 450.99 1230.73 458.3C1230.76 460.76 1230.14 464.11 1228.5 465.51C1225.96 467.67 1222.29 468.51 1219.1 469.91C1218.35 467.18 1216.99 464.47 1216.95 461.73C1216.79 451.57 1217.15 441.41 1217.1 431.25C1217.09 429.12 1216.21 427 1215.72 424.88C1213.84 425.67 1211.97 426.45 1208.94 427.73C1206.77 425.38 1203.82 422.55 1201.31 419.37C1198.86 416.26 1199.49 413.5 1202.57 410.7C1204.25 409.18 1205.58 406.44 1205.69 404.19C1206.06 396.22 1205.8 388.23 1205.87 380.24C1205.89 378.68 1206.36 377.12 1206.64 375.45C1207.69 375.68 1208.41 375.62 1208.59 375.91C1212.74 382.46 1219.16 380.6 1225.15 380.52C1227.82 380.48 1229.73 379.83 1229.84 376.72C1229.95 373.51 1231.02 371.27 1234.87 371.39C1235.8 371.42 1237.23 370.54 1237.62 369.71C1239.22 366.24 1242.41 365.98 1244.73 367.36C1247.12 368.78 1250.06 371.75 1250.11 374.09C1250.21 378.88 1252.25 379.37 1256.14 379.61C1264.39 380.11 1272.62 381.03 1280.84 381.94C1285 382.4 1290.88 378.92 1293.88 376.12C1295.84 374.3 1299.73 374.27 1302.79 374.14C1303.46 374.11 1304.91 377.05 1304.89 378.6C1304.82 383.14 1306.34 388.29 1300.66 391.25C1299.66 391.77 1299.6 394.6 1299.57 396.38C1299.45 402.69 1299.52 409.01 1299.52 415.08C1293.51 416.83 1291.87 420.41 1292.81 425.91C1293.5 429.95 1293.16 434.18 1293.16 438.33C1293.16 444.33 1293.07 450.32 1293 456.32C1292.96 459.86 1293.95 463.5 1288.5 464.74C1285.58 465.4 1286.81 468.14 1288.85 469.66C1293.12 472.84 1297.28 476.21 1301.78 479.03C1305.15 481.15 1305.98 483.03 1302.9 485.92C1302.3 486.48 1301.79 487.17 1301.34 487.87C1299.17 491.28 1297.29 491.38 1293.84 488.73C1286.36 482.97 1278.3 477.96 1270.46 472.67C1269.78 472.21 1268.96 471.96 1268.23 471.56C1261.33 467.84 1255.63 467.6 1249.11 473.8C1237.17 485.17 1221.47 489.34 1205.77 492.78C1204.29 493.1 1202.37 491.37 1200.65 490.59C1201.87 489.2 1202.82 487.26 1204.35 486.52C1212.42 482.64 1220.79 479.36 1228.75 475.28C1235.56 471.78 1240.07 466.13 1241.29 458.24C1242.13 452.83 1243.41 447.47 1244.01 442.03C1244.35 438.97 1245.33 437.44 1248.48 437.39C1251.31 437.34 1254.13 437.11 1256.95 436.87C1261.92 436.43 1264.31 438.89 1264.91 443.85ZM1236.03 387.23C1239.54 394.84 1243.85 400.95 1250.01 405.62C1250.79 406.21 1253.08 406.21 1253.54 405.61C1256.85 401.34 1260.15 397 1262.85 392.33C1264.07 390.22 1263.21 387.37 1260.02 387.29C1252.3 387.09 1244.57 387.23 1236.03 387.23ZM1221.83 412.86C1223.71 415.45 1225.46 417.13 1226.31 419.17C1228.54 424.55 1234.69 426.1 1238.9 421.95C1241.25 419.63 1243.35 417.05 1246.09 413.99C1243.01 412.04 1240.1 408.66 1237.36 408.79C1232.24 409.05 1227.22 411.34 1221.83 412.86ZM1254.41 423.5C1260.45 423.5 1265.84 423.58 1271.23 423.47C1274.11 423.41 1276.99 423.04 1279.87 422.81C1278.84 419.78 1278.14 416.59 1276.71 413.77C1274.94 410.26 1266.19 409.65 1263.58 412.65C1260.7 415.96 1257.89 419.37 1254.41 423.5ZM1272.26 404.01C1289.01 405.02 1286.2 406.21 1286.9 391.82C1286.92 391.32 1287.11 390.52 1286.89 390.38C1285.4 389.45 1283.85 388.04 1282.28 387.99C1280.36 387.92 1277.18 388.5 1276.66 389.71C1274.75 394.18 1273.71 399.01 1272.26 404.01ZM1223.69 385.33C1221.86 387.97 1220.19 389.41 1219.81 391.13C1219.17 394.01 1219.45 397.07 1219.17 400.04C1218.85 403.52 1220.33 404.38 1223.59 403.8C1232.39 402.24 1232.7 401.8 1229.37 393.27C1228.95 392.19 1228.66 391 1228 390.08C1227.09 388.79 1225.88 387.7 1223.69 385.33Z" fill="white"></path><path d="M1396.44 440.34C1392.26 438.14 1389.63 440.05 1386.7 442.37C1379.16 448.33 1371.43 454.06 1363.57 459.6C1361.66 460.94 1358.8 462.93 1356.83 459.23C1354.81 455.44 1357.16 454.03 1360.24 452.56C1372.01 446.96 1377.05 441.69 1385.02 427.23C1384.48 426.75 1383.96 425.91 1383.29 425.77C1376.78 424.41 1375.9 420 1376.05 414.18C1376.36 402.53 1376.22 390.86 1375.9 379.2C1375.79 375.12 1377.17 373.8 1381.05 374.11C1385.11 374.43 1389.93 372.68 1391.44 378.84C1391.58 379.42 1393.79 379.79 1395.03 379.77C1405.52 379.62 1416 379.38 1426.49 379.11C1427.45 379.09 1428.9 379.04 1429.29 378.46C1433.77 371.64 1440.51 375.71 1446.17 375.04C1448.89 374.72 1449.23 382.01 1446.99 385.16C1445.6 387.11 1444.49 389.63 1444.3 391.98C1443.9 396.95 1444.15 401.97 1444.19 406.96C1444.2 408.27 1444.16 409.69 1444.61 410.88C1447.67 418.97 1442.28 426.19 1433.54 425.35C1432.36 425.24 1430.45 423.97 1430.34 423.07C1429.91 419.45 1427.55 419.41 1424.93 419.49C1419.27 419.66 1413.62 419.83 1407.96 420.02C1407.49 420.04 1407.02 420.26 1406.61 420.37C1405.84 423.58 1405.1 426.7 1404.04 431.14C1412.67 431.14 1421.42 430.93 1430.15 431.21C1436.68 431.42 1442.74 431.6 1448.38 426.94C1452.34 423.67 1457.41 425.03 1459.91 428.52C1462.9 432.71 1462.38 438.61 1459.52 442.22C1457.8 444.39 1456.48 447.35 1456.18 450.09C1455.22 458.85 1455.01 467.7 1454.06 476.46C1453.8 478.82 1452.49 481.78 1450.67 483.11C1446.42 486.22 1441.61 488.58 1436.95 491.12C1433.89 492.79 1431.19 491.97 1428.87 489.47C1425.17 485.49 1421.44 481.55 1417.02 476.85C1423.03 476.24 1428.52 475.34 1434.02 475.24C1439.22 475.14 1442.07 472.58 1442.35 467.89C1442.89 459.11 1442.87 450.28 1442.82 441.47C1442.81 440.5 1441.03 438.75 1440.11 438.78C1438.76 438.82 1436.87 439.81 1436.22 440.96C1434.67 443.68 1433.74 446.75 1432.52 449.66C1423.38 471.37 1405.59 482.75 1384.32 489.92C1381.01 491.03 1377.69 492.29 1374.27 492.76C1372.81 492.96 1371.09 491.34 1369.49 490.55C1370.49 489.31 1371.23 487.61 1372.52 486.9C1381.84 481.81 1391.62 477.47 1400.57 471.81C1411.04 465.19 1413.67 453.42 1417.13 442.5C1418.05 439.6 1415.74 439.11 1413.55 439.51C1412.72 439.66 1411.68 440.51 1411.34 441.29C1403.24 459.9 1386.31 467.61 1369.41 475.34C1367.29 476.31 1364.73 478.2 1363.06 474.69C1361.5 471.42 1364.08 470.39 1366.28 469.09C1370.72 466.47 1375.12 463.78 1379.48 461.02C1387.33 456.07 1392.6 448.94 1396.44 440.34ZM1410 411.16C1410 411.27 1410 411.38 1410 411.5C1415.16 411.5 1420.32 411.35 1425.47 411.56C1428.36 411.68 1429.66 410.59 1429.1 407.85C1428.55 405.13 1430.77 400.54 1425.69 400.45C1415.39 400.27 1405.08 400.62 1394.78 400.9C1389.97 401.03 1391.54 404.98 1391.11 407.65C1390.61 410.8 1392.57 411.21 1395.05 411.18C1400.03 411.12 1405.01 411.16 1410 411.16ZM1410.09 387.18C1410.09 387.15 1410.09 387.13 1410.09 387.1C1404.95 387.1 1399.8 386.98 1394.67 387.2C1393.52 387.25 1392.42 388.5 1391.3 389.2C1392.39 390.13 1393.47 391.86 1394.57 391.88C1404.85 392.03 1415.14 391.97 1425.42 391.73C1426.72 391.7 1427.99 390.26 1429.27 389.47C1428.02 388.71 1426.8 387.35 1425.52 387.29C1420.38 387.03 1415.23 387.18 1410.09 387.18Z" fill="white"></path><path d="M1504.98 405.83C1509.35 405.83 1513.34 405.57 1517.29 405.9C1521.89 406.29 1523.02 404.21 1522.9 400.04C1522.68 391.88 1522.76 383.71 1522.89 375.55C1522.92 373.63 1523.15 371.3 1524.26 369.96C1525.1 368.95 1527.93 368.42 1529.09 369.08C1532.89 371.21 1536.33 373.97 1540.32 376.05C1541.59 378.8 1541.67 381.77 1537.43 382.85C1537.23 389.73 1536.99 396.6 1536.94 403.48C1536.94 403.7 1538.71 404.11 1539.66 404.15C1546.48 404.42 1553.31 404.93 1560.12 404.75C1568.92 404.52 1572.03 401.05 1571.99 392.39C1571.96 386.56 1571.66 380.73 1571.81 374.91C1571.86 373.14 1572.56 370.39 1573.74 369.87C1575.38 369.15 1577.93 369.69 1579.79 370.44C1582.78 371.65 1585.59 373.37 1588.33 375.1C1589.15 375.62 1590 376.89 1589.95 377.77C1589.91 378.56 1588.72 379.87 1587.93 379.95C1583.4 380.39 1582.65 383.21 1582.97 386.99C1583.11 388.64 1582.78 390.36 1583.04 391.98C1583.49 394.76 1583.34 398.7 1585.06 399.98C1588.15 402.28 1592.17 401.76 1595.68 399.09C1598.9 396.65 1602.56 395.95 1606.43 398.1C1611.69 401.03 1613.42 407.48 1609.94 412.46C1607.97 415.28 1608.23 417.77 1610.36 420.14C1613.71 423.85 1617.28 427.35 1620.58 431.09C1625.89 437.12 1627.34 448.52 1623.43 455.41C1622.68 456.73 1620.14 457.79 1618.54 457.64C1617.03 457.5 1615.04 455.92 1614.39 454.46C1613.18 451.78 1613.13 448.58 1611.98 445.86C1610.9 443.31 1609.03 441.09 1607.51 438.72C1606.98 438.9 1606.46 439.08 1605.93 439.26C1605.28 450.47 1604.5 461.68 1604.03 472.89C1603.69 480.82 1594.78 490.99 1586.85 491.85C1585.62 491.98 1584.08 491.7 1583.08 491.02C1578.23 487.75 1575.58 482.91 1573.15 477.22C1575.52 476.93 1577.14 476.51 1578.74 476.58C1588.54 476.98 1592.36 470.72 1592.92 461.6C1593.5 451.97 1593.2 442.29 1593.57 432.64C1593.65 430.52 1595.18 428.5 1595.6 426.34C1596.55 421.48 1597.21 416.56 1597.96 411.87C1587.22 408.98 1579.07 415.52 1579.43 425.72C1579.65 431.87 1579.63 438.07 1579.02 444.18C1578.59 448.53 1577.91 453.29 1575.78 456.96C1568.07 470.28 1557.29 480.85 1544.27 489.1C1543.19 489.79 1541.92 490.18 1540.55 490.8C1538.44 487.17 1540.25 484.68 1542.2 482.13C1550.29 471.55 1558.36 461.03 1563.56 448.54C1568.06 437.76 1566.48 426.57 1566.96 415.51C1567 414.67 1565.2 413 1564.23 412.98C1556.57 412.88 1548.91 413.09 1541.25 413.19C1538.19 413.23 1538 415.23 1537.93 417.62C1537.49 434.09 1536.95 450.57 1536.47 467.04C1536.28 473.53 1536.17 480.02 1535.94 486.51C1535.77 491.19 1532.95 494.27 1529.02 493.95C1524.41 493.58 1523.78 490.41 1523.74 486.49C1523.51 464.34 1523.05 442.2 1522.86 420.05C1522.83 416.21 1521.58 414.48 1517.66 414.75C1515.85 414.87 1514.01 414.59 1512.19 414.48C1506.94 414.15 1505.36 412.41 1504.98 405.83Z" fill="white"></path><path d="M1316.37 137.55C1316.37 97.11 1316.37 58.0099 1316.37 18.7499C1317.13 18.5399 1317.74 18.2099 1318.35 18.2199C1332.83 18.4499 1347.34 18.1799 1361.78 19.0999C1381.48 20.3599 1394.3 37.9699 1389.1 55.59C1386.35 64.91 1379.44 69.9799 1370.36 73.4599C1371.68 74.0899 1372.59 74.6099 1373.56 74.9599C1389.43 80.6399 1396.44 91.5599 1394.98 108.38C1393.76 122.44 1383.42 134.02 1368.07 135.55C1351.09 137.24 1333.91 136.96 1316.37 137.55ZM1333.17 81.7399C1333.17 96.0599 1333.17 109.41 1333.17 122.97C1342.28 122.97 1351.06 123.11 1359.83 122.87C1362.05 122.81 1364.36 121.79 1366.42 120.78C1373.63 117.23 1377.8 108.73 1376.68 100.27C1375.46 91.0899 1370.79 84.1999 1363.63 83.3799C1353.63 82.2399 1343.51 82.2399 1333.17 81.7399ZM1332.78 68.0299C1341.06 68.0299 1348.85 68.3099 1356.61 67.9599C1365.33 67.5599 1371.13 61.4699 1371.96 52.5999C1372.84 43.2099 1368.13 34.91 1359.67 33.61C1350.94 32.27 1341.96 32.5899 1332.79 32.1699C1332.78 44.6299 1332.78 56.0399 1332.78 68.0299Z" fill="white"></path><path d="M873.289 177.31C889.869 177.86 906.259 177.28 922.329 179.25C940.089 181.42 950.429 197.96 946.209 214.21C944.379 221.24 940.059 226.25 933.879 229.78C932.049 230.83 930.129 231.7 927.479 233.05C929.149 233.76 930.119 234.22 931.109 234.58C946.509 240.26 953.499 251.47 951.919 267.93C950.599 281.66 940.419 292.77 925.809 294.78C916.139 296.11 906.249 295.88 896.449 296.12C888.829 296.31 881.199 296.16 873.289 296.16C873.289 256.7 873.289 217.66 873.289 177.31ZM890.089 282.06C899.859 282.06 909.069 282.85 918.079 281.84C927.779 280.75 933.449 272.58 933.489 262.16C933.529 251.58 928.449 243.51 919.469 242.63C909.819 241.68 899.999 242.42 890.089 242.42C890.089 255.74 890.089 268.98 890.089 282.06ZM889.819 227.26C898.219 227.26 906.349 227.72 914.389 227.14C923.129 226.5 928.369 220.21 928.959 211.06C929.529 202.32 924.729 194.33 916.579 193.06C907.839 191.69 898.849 191.93 889.819 191.45C889.819 204.09 889.819 215.66 889.819 227.26Z" fill="white"></path><path d="M1043 425.11C1043 416.95 1043.1 408.79 1042.95 400.63C1042.89 397.37 1043.52 394.99 1047.24 394.67C1050.51 394.39 1054.19 392.41 1056.12 397.31C1056.57 398.45 1058.46 399.66 1059.74 399.71C1065.56 399.97 1071.4 399.74 1077.23 399.86C1080.36 399.92 1081.23 398.4 1081.19 395.55C1081.09 389.05 1081.27 382.55 1081.12 376.06C1081.04 372.7 1082.39 371.29 1085.73 371C1097.49 370 1099.87 372.08 1099.81 384.06C1099.79 388.05 1099.56 392.05 1099.12 396.01C1098.75 399.35 1100.09 400.56 1103.27 400.51C1108.6 400.42 1113.94 400.66 1119.25 400.36C1120.72 400.28 1123.02 399.03 1123.37 397.86C1124.66 393.45 1128.15 393.82 1131.04 394.34C1133.44 394.77 1135.67 396.6 1137.78 398.08C1139.02 398.95 1139.68 401 1140.95 401.39C1144.67 402.53 1144.74 405.61 1144.49 408.21C1144.39 409.28 1141.24 409.8 1140.07 411.1C1138.76 412.57 1137.31 414.65 1137.34 416.45C1137.48 424.93 1138.12 433.4 1138.57 441.88C1138.84 447.02 1133.81 452.91 1128.72 452.98C1127.47 453 1125.42 451.72 1125.09 450.62C1124.13 447.48 1122.11 447.11 1119.37 447.13C1114.04 447.17 1108.71 447.08 1103.39 446.82C1100.26 446.67 1098.85 447.57 1098.95 451C1099.22 460.49 1099.09 469.98 1099.36 479.47C1099.57 486.82 1095.09 492.28 1087.77 493.05C1082.24 493.63 1080.81 492.48 1080.87 486.89C1081 475.24 1081.09 463.58 1081.62 451.94C1081.8 447.91 1080.74 446.47 1076.72 446.78C1073.24 447.05 1069.73 446.89 1066.23 446.82C1061.77 446.73 1057.64 446.09 1056.03 452.4C1055.03 456.32 1050.33 456.6 1046.57 455.99C1042.81 455.38 1043.57 452.1 1043.54 449.57C1043.45 441.41 1043.51 433.26 1043.51 425.1C1043.33 425.11 1043.17 425.11 1043 425.11ZM1124.17 423.87C1124.11 423.87 1124.06 423.87 1124 423.87C1124 420.55 1123.89 417.22 1124.03 413.91C1124.15 411.01 1123.02 409.55 1120.04 409.52C1113.73 409.44 1107.42 409.38 1101.11 409.14C1098.02 409.02 1096.95 410.32 1097.14 413.28C1097.47 418.58 1097.56 423.9 1097.9 429.19C1098.45 437.75 1098.5 437.74 1106.88 438.18C1110.19 438.36 1113.5 438.78 1116.82 438.79C1123.41 438.8 1124.29 437.8 1124.18 431.35C1124.13 428.86 1124.17 426.36 1124.17 423.87ZM1080.49 424.11C1080.48 424.11 1080.48 424.11 1080.47 424.11C1080.47 420.45 1080.74 416.77 1080.33 413.16C1080.18 411.86 1078.47 409.8 1077.34 409.71C1071.56 409.24 1065.73 409.13 1059.93 409.34C1058.86 409.38 1057.04 411.45 1056.98 412.65C1056.7 419.29 1056.84 425.94 1056.88 432.59C1056.9 436.3 1058.92 438.55 1062.45 439.16C1065.03 439.61 1067.75 439.89 1070.34 439.61C1081.68 438.39 1080.42 439.54 1080.5 428.6C1080.5 427.11 1080.49 425.61 1080.49 424.11Z" fill="white"></path><path d="M961.76 13.73C965.91 12.88 971.04 11.84 977.39 10.54C977.39 27.54 977.39 43.71 977.39 60.93C981.64 57.99 984.62 55.67 987.84 53.74C997.22 48.1 1007.09 46.6 1017.38 51.08C1024.89 54.34 1028.74 60.53 1028.84 68.39C1029.13 91.02 1028.94 113.65 1028.94 136.64C1023.86 136.64 1018.97 136.64 1013.48 136.64C1013.48 134.66 1013.49 132.7 1013.48 130.74C1013.37 112.1 1013.46 93.45 1013.06 74.81C1012.86 65.18 1007.87 61.44 998.32 62.88C990.71 64.03 984.74 68.21 979.81 73.81C978.7 75.07 978.56 77.49 978.55 79.38C978.46 96.53 978.5 113.68 978.5 130.84C978.5 132.65 978.5 134.46 978.5 136.64C973.07 136.64 968 136.64 961.75 136.64C961.76 96.07 961.76 55.39 961.76 13.73Z" fill="white"></path><path d="M1605.7 83.4899C1605.82 81.6599 1605.97 80.3699 1605.99 79.0699C1606.18 63.2799 1600.4 58.5599 1584.97 62.1599C1581.6 62.9499 1578.33 64.3199 1575.16 65.7599C1572.15 67.1299 1569.33 68.9499 1566.01 70.7999C1563.72 67.1699 1561.36 63.4299 1558.88 59.5099C1572.39 51.0499 1586.45 46.0799 1602.24 48.6399C1615.34 50.7599 1621.69 58.2299 1621.76 71.6599C1621.83 85.4699 1621.31 99.2899 1621.18 113.1C1621.1 121.95 1621.99 123.93 1627.94 130.16C1626.2 132.51 1624.22 134.77 1622.71 137.31C1620.75 140.61 1618.45 140.88 1615.93 138.37C1613.15 135.6 1610.68 132.53 1607.85 129.34C1600.57 137.37 1590.94 140.43 1579.83 139.29C1567.02 137.98 1559.2 131.86 1556.92 121.33C1554.01 107.86 1558.73 96.1799 1569.69 89.9299C1578.34 84.9999 1587.86 83.6999 1597.6 83.4999C1600.25 83.4499 1602.88 83.4899 1605.7 83.4899ZM1605.16 94.0299C1599.57 94.4799 1594.08 94.4599 1588.77 95.4499C1577.68 97.5099 1572.68 104.74 1573.98 115.93C1574.85 123.44 1580.05 128.02 1587.47 127.82C1595.56 127.61 1604.92 120.58 1605.11 114.33C1605.31 108.03 1605.16 101.72 1605.16 94.0299Z" fill="white"></path><path d="M1226.55 129.35C1219.07 137.56 1209.54 140.38 1198.63 139.29C1185.46 137.98 1177.94 131.84 1175.49 120.36C1172.82 107.9 1177.88 96.0299 1188.48 89.9599C1197.12 85.0199 1206.61 83.7099 1216.35 83.4999C1218.97 83.4399 1221.59 83.4899 1225.24 83.4899C1224.66 77.9299 1224.64 72.9399 1223.53 68.2099C1222.27 62.8699 1217.66 61.3399 1212.69 61.1899C1204.63 60.9399 1197.34 63.6199 1190.44 67.5299C1188.72 68.4999 1187.06 69.5799 1184.93 70.8699C1182.52 67.0999 1180.16 63.3999 1177.67 59.4799C1191.58 50.9299 1205.88 45.8499 1222.04 48.8199C1233.75 50.9699 1240 57.5699 1240.35 69.6299C1240.77 84.2399 1240.13 98.8899 1240.01 113.52C1239.96 119.83 1240.78 125.86 1247.03 129.83C1244.98 132.57 1242.86 134.93 1241.29 137.61C1239.33 140.96 1237.01 140.51 1234.82 138.43C1231.99 135.74 1229.53 132.66 1226.55 129.35ZM1224 93.9999C1218.05 94.5399 1212.24 94.5399 1206.67 95.6799C1196.18 97.8299 1191.47 105.09 1192.84 115.81C1193.85 123.73 1198.99 128.2 1206.64 127.82C1214.82 127.41 1223.82 120.34 1223.97 114.01C1224.11 107.87 1224 101.73 1224 93.9999Z" fill="white"></path><path d="M1694.97 251.5C1694.58 263.99 1693.06 273.94 1687.36 282.81C1679.89 294.42 1668.84 299.24 1655.48 298.75C1641.72 298.25 1631.03 291.89 1625.26 279.27C1617.55 262.4 1617.44 244.95 1624.81 227.95C1631.37 212.8 1644.58 206.17 1662.39 207.95C1677.22 209.43 1688.84 220.32 1692.76 236.92C1694.05 242.39 1694.47 248.07 1694.97 251.5ZM1677.65 254.19C1676.43 247.02 1675.83 240.02 1673.98 233.37C1671.32 223.82 1665.26 219.73 1656.07 220C1647.47 220.25 1641.52 225.02 1639.38 234.36C1636.44 247.19 1636.65 260.12 1640.07 272.85C1642.39 281.48 1647.97 285.82 1656 286.15C1664.99 286.52 1671.04 282.91 1673.81 274.07C1675.81 267.65 1676.42 260.8 1677.65 254.19Z" fill="white"></path><path d="M1277.1 256.79C1277.02 267.79 1278.3 277.58 1288.55 282.83C1300.33 288.86 1311.14 285.58 1321.55 277.67C1323.56 280.75 1325.5 283.72 1327.96 287.47C1323.83 289.95 1320.25 292.64 1316.27 294.42C1289.41 306.44 1263.62 291.89 1259.88 262.81C1258.52 252.28 1258.67 241.84 1262.14 231.72C1268.24 213.91 1284.16 204.59 1302.57 207.86C1312.01 209.53 1319.22 214.61 1323.85 222.91C1329.68 233.35 1329.47 244.86 1329.39 256.8C1311.77 256.79 1294.69 256.79 1277.1 256.79ZM1312.52 244.54C1313.05 229.34 1305.5 219.11 1294.53 219.54C1283.5 219.97 1276.43 230.33 1277.67 244.54C1289.18 244.54 1300.72 244.54 1312.52 244.54Z" fill="white"></path><path d="M1778.51 207.79C1778.51 210.36 1778.51 212.32 1778.51 214.28C1778.51 233.78 1778.47 253.28 1778.53 272.77C1778.55 278.98 1779.04 285.14 1783.72 290.58C1780.21 293.43 1776.78 296.2 1772.44 299.73C1769.57 295.84 1766.83 292.12 1763.93 288.19C1756.66 296.37 1747.09 299.95 1735.72 299.13C1722.9 298.2 1714.17 290.56 1713.8 277.76C1713.19 256.28 1713.51 234.77 1713.62 213.28C1713.63 212.17 1715.13 210.4 1716.26 210.09C1720.25 208.99 1724.37 208.38 1729.17 207.45C1729.17 209.64 1729.17 211.41 1729.17 213.17C1729.17 230.84 1729.16 248.5 1729.19 266.17C1729.19 268.5 1729.31 270.83 1729.57 273.14C1730.75 283.69 1739.43 288.86 1749.36 284.99C1758.22 281.54 1762.5 275.38 1762.5 266.09C1762.5 249.26 1762.62 232.42 1762.42 215.6C1762.37 211.8 1763.52 210.23 1767.3 209.89C1770.86 209.54 1774.38 208.58 1778.51 207.79Z" fill="white"></path><path d="M986.511 207.44C986.511 224.33 986.491 240.29 986.521 256.26C986.531 261.92 986.381 267.6 986.831 273.22C987.641 283.35 995.951 288.54 1005.62 285.28C1015.06 282.1 1019.84 275.49 1019.84 265.63C1019.84 249.31 1019.84 232.99 1019.84 216.67C1019.84 214.86 1019.84 213.04 1019.84 210.87C1024.97 209.84 1029.8 208.87 1035.51 207.72C1035.51 210.13 1035.5 212.03 1035.51 213.93C1035.62 234.74 1035.53 255.55 1036.01 276.35C1036.12 281.1 1038.21 285.81 1039.66 291.63C1037.34 293.48 1033.78 296.31 1029.45 299.76C1026.61 295.74 1023.99 292.05 1021.23 288.15C1020.3 289.01 1019.16 290.16 1017.94 291.2C1007.89 299.78 996.481 301.39 984.331 297C976.301 294.1 971.271 288.01 971.091 279.34C970.631 257.37 970.651 235.4 970.621 213.42C970.621 212.3 971.741 210.44 972.681 210.2C976.951 209.09 981.361 208.42 986.511 207.44Z" fill="white"></path><path d="M945.59 25.22C942.63 29.23 940.17 32.57 937.83 35.74C932.69 33.79 927.94 31.16 922.88 30.22C906.27 27.11 893.17 35.19 887.97 51.84C883 67.74 882.73 84.09 886.85 100.13C892.91 123.71 916.7 132.51 937.23 119.32C937.92 118.88 938.63 118.48 939.59 117.92C942.26 121.45 944.85 124.89 947.68 128.65C940.78 133.94 933.12 136.88 924.81 137.96C896.81 141.61 876.28 128.28 868.82 100.81C863.08 79.66 864.26 58.78 875.69 39.51C888.61 17.72 915.23 9.87003 937.89 20.72C940.39 21.92 942.71 23.53 945.59 25.22Z" fill="white"></path><path d="M1602.98 277.22C1605.75 280.92 1608.3 284.34 1610.84 287.74C1592.08 304.86 1557 300.5 1541.3 279.33C1523.98 255.97 1525.16 214.65 1543.79 192.33C1558.21 175.04 1583.44 170.21 1603.17 181C1605.03 182.01 1606.73 183.3 1608.97 184.77C1606.06 188.65 1603.41 192.19 1600.64 195.87C1592.59 189.93 1583.81 187.74 1574.4 189.39C1562.76 191.43 1555.55 199.1 1551.92 209.84C1546.23 226.67 1545.85 244.02 1550.7 260.98C1557.08 283.29 1580.66 291.5 1600.25 279C1600.96 278.54 1601.65 278.09 1602.98 277.22Z" fill="white"></path><path d="M1684 51.8799C1687.98 50.7699 1692.73 49.4299 1698.28 47.8799C1699.41 52.0499 1700.47 55.9699 1701.63 60.2199C1703.6 58.7199 1705.47 56.7099 1707.77 55.6699C1713.45 53.1199 1719.15 49.8799 1725.16 48.9699C1739.19 46.8399 1749.72 55.2899 1750.12 69.3899C1750.75 91.6699 1750.29 113.98 1750.29 136.63C1745.09 136.63 1740.06 136.63 1734.49 136.63C1734.49 134.56 1734.49 132.59 1734.49 130.63C1734.49 112.47 1734.55 94.3199 1734.46 76.1599C1734.42 67.5799 1732.1 63.9399 1726.32 62.5399C1720.09 61.0299 1705.55 67.2099 1702.57 72.8499C1701.93 74.0599 1702.03 75.7399 1702.02 77.1999C1701.99 95.1899 1702 113.18 1702 131.17C1702 132.96 1702 134.74 1702 136.76C1696.58 136.76 1691.65 136.76 1686 136.76C1686 135 1686 133.24 1686 131.49C1686 111.83 1686.16 92.1799 1685.91 72.5199C1685.83 65.9399 1684.73 59.3699 1684 51.8799Z" fill="white"></path><path d="M1108.84 136.84C1103.26 136.84 1098.46 136.84 1093.37 136.84C1091.63 108.75 1095.3 80.5801 1090.87 51.9401C1094.77 50.8201 1099.62 49.4301 1105.17 47.8401C1106.31 52.0401 1107.38 55.9301 1108.52 60.1401C1111.43 58.0001 1114.12 55.8101 1117.02 53.9401C1124.96 48.8201 1133.55 46.9501 1142.74 49.8501C1151.46 52.6001 1156.91 59.2001 1157.02 68.3001C1157.29 90.9501 1157.11 113.6 1157.11 136.63C1152.05 136.63 1147.13 136.63 1141.51 136.63C1141.51 134.78 1141.52 132.84 1141.51 130.9C1141.4 111.91 1141.51 92.9201 1141.09 73.9301C1140.88 64.2101 1135.01 60.3301 1125.58 62.9701C1123.05 63.6801 1120.63 64.8901 1118.24 66.0301C1111.57 69.2401 1108.2 73.7401 1108.61 82.0101C1109.42 98.3001 1108.85 114.66 1108.85 130.99C1108.84 132.79 1108.84 134.58 1108.84 136.84Z" fill="white"></path><path d="M1193 295.98C1187.58 295.98 1182.79 295.98 1177.16 295.98C1177.16 294.12 1177.16 292.38 1177.16 290.64C1177.11 269.49 1177.2 248.33 1176.9 227.18C1176.83 222.11 1175.49 217.06 1174.64 211.38C1178.41 210.33 1182.63 208.98 1186.94 208.08C1187.85 207.89 1189.73 209.06 1190.06 209.99C1191.15 213.03 1191.74 216.24 1192.25 218.33C1199.17 215.07 1205.97 210.49 1213.44 208.62C1229.17 204.69 1241.32 214.78 1241.45 230.9C1241.61 251.22 1241.5 271.54 1241.47 291.87C1241.47 293.17 1241.26 294.47 1241.14 295.95C1236.1 295.95 1231.31 295.95 1225.82 295.95C1225.82 293.88 1225.83 291.96 1225.82 290.03C1225.71 271.38 1225.89 252.72 1225.38 234.08C1225.08 223.11 1218.56 219.22 1208.11 222.83C1207.01 223.21 1205.92 223.62 1204.86 224.1C1196.99 227.7 1192.06 232.28 1192.69 242.53C1193.78 260.1 1193 277.78 1193 295.98Z" fill="white"></path><path d="M1868.38 296C1863.25 296 1858.45 296 1852.84 296C1852.84 294.15 1852.84 292.4 1852.84 290.66C1852.84 272.83 1852.86 255.01 1852.83 237.18C1852.81 222.67 1845.34 217.95 1832.15 224.08C1830.79 224.71 1829.51 225.49 1828.19 226.19C1822.49 229.25 1819.7 233.29 1819.96 240.48C1820.61 258.76 1820.18 277.09 1820.18 295.78C1814.84 295.78 1809.81 295.78 1804.55 295.78C1802.78 267.68 1806.5 239.52 1802.13 211.32C1804.22 210.7 1806.91 209.87 1809.62 209.13C1817.16 207.06 1817.58 207.34 1818.84 215.12C1819.05 216.43 1819.13 217.76 1819.38 220.06C1821.47 218.44 1823.09 217.2 1824.7 215.93C1831.17 210.83 1838.34 207.81 1846.76 207.97C1858.55 208.2 1867.74 214.99 1868.16 226.65C1868.96 249.56 1868.38 272.53 1868.38 296Z" fill="white"></path><path d="M1052.83 289.66C1054.84 285.64 1056.62 282.09 1058.35 278.62C1064.72 280.94 1070.77 283.68 1077.1 285.27C1081.5 286.37 1086.37 286.5 1090.89 285.95C1097.51 285.15 1101.74 280.03 1102.11 273.82C1102.5 267.3 1099.68 263.03 1092.8 260.86C1088.23 259.42 1083.44 258.64 1078.72 257.66C1063.94 254.61 1056.69 246.99 1056.18 233.9C1055.69 221.34 1064.02 210.8 1077.66 207.6C1090.65 204.54 1102.94 207.08 1114.96 213.38C1113.03 217.4 1111.31 220.96 1110.16 223.36C1101.79 221.78 1094.11 219.84 1086.32 219.03C1081.01 218.48 1076.66 221.41 1074.41 226.49C1071.61 232.83 1074.17 239.11 1080.82 241.42C1085.82 243.16 1091.09 244.12 1096.25 245.4C1112.36 249.38 1119.6 257.52 1119.08 271.06C1118.54 285.03 1108.53 295.55 1093.57 298.02C1079.11 300.41 1065.95 296.66 1052.83 289.66Z" fill="white"></path><path d="M1477.77 213.83C1475.98 217.53 1474.33 220.95 1472.63 224.47C1467.88 222.8 1463.48 220.52 1458.85 219.82C1454.07 219.09 1448.87 219.11 1444.19 220.22C1438.92 221.47 1436.45 226.32 1436.52 231.78C1436.59 237.31 1439.78 240.38 1444.66 241.82C1449.44 243.23 1454.35 244.2 1459.19 245.4C1475.38 249.4 1482.57 257.46 1482.07 271.04C1481.57 284.85 1471.81 295.37 1457.05 297.96C1442.42 300.53 1429.06 296.79 1415.83 289.66C1417.76 285.78 1419.58 282.13 1421.32 278.64C1427.76 280.97 1433.84 283.68 1440.19 285.3C1444.43 286.38 1449.13 286.51 1453.51 286.02C1460.17 285.29 1464.6 280.27 1465.07 274.17C1465.6 267.4 1462.74 263.03 1455.62 260.8C1451.04 259.37 1446.24 258.59 1441.53 257.61C1426.8 254.54 1419.44 246.68 1419.18 233.66C1418.93 221.11 1427.07 211.13 1440.44 207.6C1451.75 204.62 1468.34 207.3 1477.77 213.83Z" fill="white"></path><path d="M1402.69 213.38C1400.73 217.48 1399.04 221.01 1397.92 223.34C1389.38 221.74 1381.71 219.87 1373.94 219C1369.28 218.48 1365.23 220.95 1362.8 225.26C1359.04 231.9 1361.41 238.94 1368.61 241.43C1373.61 243.16 1378.89 244.12 1384.04 245.41C1399.59 249.3 1407.08 257.38 1406.94 270.11C1406.78 283.82 1397.86 294.37 1383.2 297.6C1368.12 300.92 1354.29 296.97 1340.51 289.67C1342.49 285.72 1344.32 282.08 1346.06 278.59C1352.47 280.93 1358.52 283.64 1364.86 285.26C1369.09 286.35 1373.78 286.46 1378.16 286C1384.96 285.29 1389.42 280.2 1389.95 273.77C1390.45 267.67 1387.27 262.93 1380.54 260.82C1375.8 259.34 1370.84 258.57 1365.97 257.52C1351.51 254.42 1344.23 246.6 1344.01 233.87C1343.78 220.8 1351.76 210.71 1365.41 207.55C1378.24 204.61 1390.41 207.04 1402.69 213.38Z" fill="white"></path><path d="M1788.98 430.71C1786.14 432.68 1784.6 434.53 1782.79 434.86C1776.77 435.96 1770.67 436.65 1764.57 437.14C1763.52 437.22 1761.4 435.61 1761.38 434.74C1761.28 431.01 1759.24 430.46 1756.16 430.43C1743.51 430.31 1730.87 430.04 1718.22 429.83C1708.74 429.67 1699.25 429.32 1689.77 429.48C1687.34 429.52 1684.8 430.89 1682.55 432.1C1677.45 434.83 1672.54 437.91 1667.48 440.72C1664.93 442.14 1662.68 441.32 1662.11 438.54C1661.82 437.09 1662.55 434.56 1663.68 433.81C1685.48 419.33 1700.76 399.26 1713.56 376.9C1714.64 375.02 1717.51 373.22 1719.6 373.16C1721.2 373.12 1723.62 375.57 1724.41 377.45C1729.8 390.26 1737.8 400.9 1749.84 407.98C1760.87 414.46 1772.24 420.35 1783.42 426.57C1784.98 427.42 1786.3 428.68 1788.98 430.71ZM1736.14 411.57C1732.04 407.35 1726.07 401.2 1720.51 395.48C1713 403.75 1705.21 412.33 1696.58 421.83C1706.91 421.83 1716.65 421.78 1726.39 421.86C1729.83 421.89 1733.02 422.18 1733.7 417.4C1734.03 415.16 1735.48 413.08 1736.14 411.57Z" fill="white"></path><path d="M1672.93 442.17C1678.03 442.17 1683.13 442.21 1688.23 442.16C1708.39 441.95 1728.55 441.79 1748.7 441.41C1751.38 441.36 1754.05 439.66 1756.72 439.66C1761.2 439.66 1765.68 440.4 1770.17 440.83C1769.07 448.72 1766.14 451.31 1759.68 451.18C1750.69 451 1741.69 450.81 1732.69 450.93C1730.55 450.96 1727.75 451.57 1726.4 453C1718.89 460.94 1711.73 469.22 1704.06 477.82C1705.46 477.95 1706.51 478.19 1707.54 478.13C1717.52 477.61 1727.5 477.15 1737.46 476.38C1739.2 476.25 1741.5 475.18 1742.29 473.81C1742.85 472.85 1741.37 470.63 1740.66 469.03C1739.59 466.63 1738.41 464.28 1737.27 461.91C1740.06 462.25 1743.29 461.8 1745.55 463.08C1751.16 466.23 1756.79 469.66 1761.5 473.97C1764.49 476.71 1766.42 481.04 1767.77 485.02C1768.96 488.51 1768.55 492.51 1764.01 494.09C1759.71 495.59 1754.57 493.52 1753.43 489.14C1752.47 485.45 1750.62 484.89 1747.38 485.1C1736.08 485.83 1724.77 486.37 1713.47 487C1712.64 487.05 1711.66 486.94 1711.02 487.34C1702.01 493.01 1692.16 489.42 1682.7 489.83C1681.46 489.88 1679.26 487.93 1679.03 486.64C1678.6 484.16 1677.15 480.37 1681.28 479.56C1695.21 476.85 1700.22 466.25 1704.04 454.52C1705.58 449.77 1704.73 448.23 1699.87 448.12C1697.1 448.06 1693.31 448.61 1691.69 450.42C1687.76 454.8 1682.76 454.33 1678.84 452.95C1675.84 451.89 1674.07 447.37 1671.75 444.39C1672.14 443.67 1672.53 442.92 1672.93 442.17Z" fill="white"></path><path d="M1545.12 126.17C1545.63 128.45 1546.51 130.54 1546.41 132.57C1546.34 134.09 1545.35 136.4 1544.17 136.89C1537.03 139.86 1529.54 140.2 1522.18 137.9C1515.64 135.86 1511.07 131.5 1510.79 124.29C1510.34 112.65 1510.3 100.99 1510.19 89.3399C1510.1 80.3899 1510.17 71.4399 1510.17 62.1699C1506.71 62.1699 1503.76 62.1699 1500.4 62.1699C1500.4 58.2999 1500.4 54.7399 1500.4 50.7699C1503.38 50.5999 1506.47 50.4199 1509.86 50.2199C1510.22 44.2799 1510.69 38.4999 1510.86 32.7199C1510.95 29.8099 1511.69 28.1799 1514.94 27.7199C1519.02 27.1399 1523.01 25.9099 1527.63 24.8199C1527.12 33.3099 1526.64 41.3599 1526.12 50.1099C1533.02 50.1099 1539.73 50.1099 1547.42 50.1099C1545.73 54.6699 1544.39 58.2899 1543.02 61.9999C1537.34 61.9999 1532.03 61.9999 1526.24 61.9999C1526.15 63.8099 1526.01 65.3999 1526.01 66.9999C1525.99 82.4999 1525.99 97.9899 1526 113.49C1526.01 126.13 1530.42 129.57 1542.89 126.69C1543.51 126.55 1544.13 126.4 1545.12 126.17Z" fill="white"></path><path d="M1946.96 216.53C1944.3 220.01 1941.6 223.52 1938.87 227.1C1936.49 225.51 1934.54 223.96 1932.38 222.78C1922.24 217.26 1910.65 221.81 1907.24 233.21C1903.51 245.68 1903.09 258.55 1906.35 271.18C1909.97 285.22 1923.08 289.93 1935.26 282.03C1937.46 280.6 1939.41 278.79 1941.66 277C1944.18 280.19 1946.64 283.3 1949.06 286.36C1937.89 302.24 1903.58 303.42 1893.08 282.08C1883.7 263.01 1883.43 243.26 1893.94 224.65C1905.24 204.62 1931.57 200.94 1946.96 216.53Z" fill="white"></path><path d="M1411.53 51.9999C1416.96 50.5899 1421.73 49.3399 1427.23 47.9099C1428.35 52.3699 1429.4 56.5999 1430.46 60.8299C1443.58 48.4599 1448.54 46.2699 1458.34 48.9399C1457.53 51.5599 1456.76 54.1999 1455.88 56.7999C1455.04 59.2999 1454.09 61.7599 1453.61 63.0899C1448.45 64.2799 1443.83 64.5299 1440 66.4099C1433.92 69.3999 1430.83 74.8699 1430.84 81.8699C1430.86 98.1999 1430.85 114.52 1430.84 130.85C1430.84 132.66 1430.84 134.47 1430.84 136.64C1425.46 136.64 1420.42 136.64 1414.84 136.64C1414.84 122.43 1414.98 108.32 1414.8 94.2199C1414.61 80.2799 1416.25 66.2199 1411.53 51.9999Z" fill="white"></path><path d="M1645.55 51.0901C1651.06 50.2401 1656.27 49.4401 1661.77 48.5901C1661.77 78.1401 1661.77 107.24 1661.77 136.67C1656.45 136.67 1651.19 136.67 1645.55 136.67C1645.55 108.36 1645.55 79.9701 1645.55 51.0901Z" fill="white"></path><path d="M1469.47 51.0901C1474.77 50.2701 1479.97 49.4601 1485.55 48.6001C1485.55 78.2501 1485.55 107.29 1485.55 136.67C1480.21 136.67 1475 136.67 1469.47 136.67C1469.47 108.18 1469.47 79.8001 1469.47 51.0901Z" fill="white"></path><path d="M1052.39 136.67C1052.39 107.93 1052.39 79.6799 1052.39 51.1199C1057.77 50.2899 1062.97 49.4899 1068.54 48.6299C1068.54 78.2399 1068.54 107.29 1068.54 136.67C1063.21 136.67 1057.99 136.67 1052.39 136.67Z" fill="white"></path><path d="M1980.62 295.9C1975.23 295.9 1969.99 295.9 1964.45 295.9C1964.34 294.2 1964.18 292.75 1964.18 291.29C1964.16 265.97 1964.24 240.64 1964.09 215.32C1964.07 211.63 1964.87 209.87 1968.91 209.72C1972.7 209.58 1976.45 208.59 1980.63 207.91C1980.62 237.35 1980.62 266.51 1980.62 295.9Z" fill="white"></path><path d="M1152.73 207.9C1152.73 237.58 1152.73 266.63 1152.73 295.93C1147.37 295.93 1142.28 295.93 1136.49 295.93C1136.49 294.18 1136.49 292.57 1136.49 290.97C1136.49 265.84 1136.57 240.7 1136.41 215.57C1136.38 211.65 1137.3 209.84 1141.49 209.69C1145.1 209.54 1148.68 208.57 1152.73 207.9Z" fill="white"></path><path d="M1260.23 97.7799C1260.23 92.8299 1260.23 88.0699 1260.23 82.8999C1271.75 82.8999 1283.24 82.8999 1294.95 82.8999C1294.95 87.8499 1294.95 92.6199 1294.95 97.7799C1283.51 97.7799 1272.15 97.7799 1260.23 97.7799Z" fill="white"></path><path d="M1564 437.19C1563.97 437.54 1564.26 439.1 1563.65 440.13C1559.32 447.49 1554.49 454.53 1545.89 457.38C1543.75 458.09 1541.14 457.41 1538.75 457.37C1538.9 455.15 1538.55 452.73 1539.32 450.76C1540.45 447.88 1542.41 445.34 1543.98 442.63C1548.02 435.66 1551.94 428.61 1556.17 421.75C1557.04 420.34 1559.06 419.64 1560.54 418.61C1561.32 419.84 1562.63 421.01 1562.8 422.32C1563.38 426.93 1563.58 431.58 1564 437.19Z" fill="white"></path><path d="M1972.62 195C1966.13 195 1961.46 190.18 1961.51 183.56C1961.56 177.04 1966.4 172.04 1972.69 172.01C1979.26 171.98 1984.24 177.11 1984.14 183.81C1984.05 190.16 1979.06 195 1972.62 195Z" fill="white"></path><path d="M1072 24.41C1071.91 30.7 1066.85 35.74 1060.52 35.82C1054.5 35.9 1049.14 30.42 1049.19 24.22C1049.24 17.68 1054.61 12.42 1061.01 12.64C1067.38 12.86 1072.09 17.91 1072 24.41Z" fill="white"></path><path d="M1653.78 12.62C1660.31 12.67 1665.31 17.9 1665.15 24.54C1665 30.74 1659.67 35.9 1653.51 35.82C1647.27 35.74 1642.45 30.59 1642.51 24.06C1642.57 17.54 1647.46 12.58 1653.78 12.62Z" fill="white"></path><path d="M1144.77 172.01C1151.16 171.97 1156.06 176.84 1156.16 183.31C1156.26 190.02 1151.39 194.98 1144.69 195C1138.31 195.02 1133.47 190.05 1133.52 183.54C1133.56 177.1 1138.5 172.04 1144.77 172.01Z" fill="white"></path><path d="M1489 24.19C1489 30.66 1483.61 35.96 1477.2 35.81C1471.28 35.67 1466.3 30.53 1466.18 24.43C1466.06 17.94 1471.36 12.53 1477.76 12.62C1484.06 12.7 1489 17.78 1489 24.19Z" fill="white"></path><path d="M206.718 207.26C216.328 205.72 225.948 203.98 234.108 198.2C238.778 194.88 242.688 194.63 247.758 197.57C255.488 202.05 263.428 206.45 271.788 209.47C282.778 213.44 284.068 227.05 277.908 235.62C270.848 245.43 264.258 255.59 257.738 265.77C256.048 268.41 255.368 271.7 254.228 274.69C254.628 275.28 255.018 275.88 255.418 276.47C266.678 274.21 278.048 272.39 289.168 269.55C296.948 267.56 304.308 263.92 312.008 261.54C314.488 260.77 317.998 260.76 320.168 261.97C328.988 266.89 337.448 272.45 346.078 277.72C354.158 282.65 355.368 286.58 354.188 295.92C352.498 309.37 344.908 314.23 333.048 313.82C319.298 313.34 305.558 312.01 291.808 312C281.408 311.99 270.978 313.21 260.618 314.39C246.808 315.96 233.038 317.97 219.268 319.88C209.438 321.25 199.638 322.85 189.808 324.18C186.348 324.65 185.668 326.91 184.788 329.74C178.228 350.95 171.458 372.17 159.428 391.03C145.958 412.14 127.098 426.41 102.448 432.24C97.8183 433.34 92.9283 433.48 88.1483 433.79C86.5083 433.89 84.8183 433.14 81.9583 432.53C118.488 408.18 137.978 373.15 153.108 335.06C152.668 334.58 152.228 334.1 151.798 333.62C144.158 336.56 136.488 339.39 128.898 342.45C114.788 348.15 100.868 354.36 86.5983 359.65C72.8383 364.76 66.0083 362.62 57.6783 351.23C52.3983 344 47.9683 330.29 48.0883 322.43C72.7383 315.96 97.2483 309.52 122.578 302.86C117.738 291.47 113.238 280.5 108.438 269.66C103.918 259.47 101.488 248.94 102.148 237.77C102.288 235.34 102.788 232.93 103.188 230.02C105.578 230.3 107.528 230.37 109.418 230.77C117.648 232.49 125.658 232.92 133.778 229.56C141.088 226.55 148.778 224.45 156.318 222.02C161.038 220.5 164.508 218.43 164.498 212.43C164.488 208.56 166.208 204.69 163.008 200.56C160.758 202.03 158.698 203.61 156.428 204.81C151.058 207.66 145.758 210.78 140.108 212.95C135.088 214.88 131.008 212.5 129.298 207.28C127.818 202.75 126.868 198.04 125.648 193.25C123.318 192.94 121.038 192.71 118.778 192.31C106.868 190.17 98.1583 183.77 92.7083 172.89C89.8983 167.29 86.7783 161.85 83.6683 156.09C93.2883 153.69 102.288 151.26 111.388 149.28C115.008 148.49 115.588 146.81 114.788 143.66C111.068 129.14 107.138 114.67 103.878 100.05C102.418 93.5101 102.368 86.6501 101.618 79.3701C104.208 79.7101 105.788 79.9301 107.368 80.1301C110.888 80.5701 113.668 79.7801 116.058 76.7001C117.058 75.4201 120.518 74.4201 121.688 75.1601C132.778 82.1501 143.618 89.5301 154.518 96.8201C163.168 102.6 168.278 109.81 166.028 121.08C165.018 126.14 165.858 131.58 165.858 137C174.108 135.56 182.698 134.06 192.918 132.27C186.968 137.77 182.498 142.82 177.158 146.65C167.928 153.28 163.068 161.13 164.648 173.05C165.708 181.05 164.848 189.31 164.848 197.2C165.448 197.63 165.678 197.94 165.948 197.98C182.948 200.44 180.658 199.6 186.088 186.09C194.538 165.08 202.128 143.72 210.128 122.52C212.928 115.1 212.908 107.52 210.988 100.03C208.818 91.5401 209.338 83.6301 214.258 76.2101C214.718 75.5201 214.998 74.7201 215.428 74.0101C225.338 57.4401 219.608 59.7001 238.118 64.7201C247.628 67.3001 256.788 71.0001 264.928 77.2401C272.278 82.8701 272.968 89.7501 271.168 97.5301C270.138 102 268.048 106.22 266.268 110.98C273.818 115.74 282.148 118.47 291.198 119.13C291.858 119.18 292.528 119.14 293.198 119.14C302.788 119.15 305.598 120.62 307.558 126.68C310.358 135.33 308.508 143.39 300.988 147.05C293.538 150.67 285.258 152.92 277.108 154.68C268.908 156.45 260.358 156.49 252.108 158.07C249.218 158.62 246.298 161.07 244.218 163.39C235.888 172.68 228.048 182.39 219.688 191.65C216.278 195.44 211.948 198.39 208.188 201.89C206.978 203.01 206.248 204.64 205.308 206.04C205.788 206.45 206.258 206.85 206.718 207.26ZM190.628 279.51C191.088 279.72 191.548 279.93 192.008 280.14C209.638 268.36 220.308 251.67 226.978 231.19C218.038 230.32 210.278 230.61 203.108 233.96C200.828 235.03 198.558 237.82 197.878 240.27C196.378 245.63 195.988 251.29 194.988 256.8C193.618 264.4 192.088 271.95 190.628 279.51ZM141.048 261.7C143.738 270.49 146.368 278.92 148.878 287.38C150.288 292.13 153.028 292.72 157.508 291.28C161.788 289.9 161.858 286.66 162.068 283.47C162.578 275.69 162.818 267.88 163.118 260.08C163.208 257.67 163.128 255.26 163.128 251.47C155.398 255.05 148.738 258.14 141.048 261.7Z" fill="white"></path><path d="M209.009 344.91C218.539 347.27 228.339 348.87 237.529 352.16C255.579 358.61 272.939 366.84 286.309 381.09C296.929 392.42 306.459 404.93 308.209 420.97C308.929 427.6 307.929 435.1 305.379 441.24C300.419 453.17 283.189 454.56 275.119 444.13C269.339 436.65 264.659 428.3 258.689 420.99C249.849 410.18 240.179 400.05 231.109 389.42C225.079 382.35 218.609 375.42 213.959 367.47C210.419 361.43 209.429 353.89 207.309 347.02C207.869 346.32 208.439 345.62 209.009 344.91Z" fill="white"></path><path d="M597.121 212.33C597.121 208.18 597.191 204.03 597.101 199.88C597.021 196.11 598.891 193.83 602.401 193.12C612.751 191.04 623.101 188.82 633.531 187.25C641.391 186.07 649.391 185.86 657.331 185.12C661.251 184.75 663.001 186.62 661.521 190.07C654.251 207.1 646.751 224.03 639.201 240.94C638.801 241.84 637.271 242.63 636.181 242.78C624.851 244.26 613.501 245.54 602.171 246.99C596.041 247.77 594.501 246.37 595.101 240.11C595.991 230.87 596.891 221.63 597.781 212.39C597.581 212.37 597.351 212.35 597.121 212.33Z" fill="white"></path><path d="M490.27 218.61C506.7 214.41 522.75 210.23 538.86 206.23C542.78 205.26 544.41 206.99 544.43 211.28C544.49 224.54 544.95 237.79 545.31 251.05C545.42 255.25 544.32 258.84 539.77 259.71C527.47 262.06 515.12 264.23 502.74 266.12C501.78 266.27 499.7 263.86 499.34 262.36C496.77 251.63 494.47 240.84 492.17 230.05C491.49 226.84 491.08 223.58 490.27 218.61Z" fill="white"></path></svg> 